<svg version="1.1" id="Layer_1" xmlns="http://www.w3.org/2000/svg" xmlns:xlink="http://www.w3.org/1999/xlink" x="0px" y="0px"
	 width="100%" viewBox="0 0 3000 590" enable-background="new 0 0 3000 590" xml:space="preserve">
<path fill="#FFFFFF" opacity="1.000000" stroke="none" 
	d="
M1982.000000,591.000000 
	C1321.333374,591.000000 661.166687,591.000000 1.000000,591.000000 
	C1.000000,394.333344 1.000000,197.666672 1.000000,1.000000 
	C1001.000000,1.000000 2001.000000,1.000000 3001.000000,1.000000 
	C3001.000000,197.666672 3001.000000,394.333344 3001.000000,591.000000 
	C2661.500000,591.000000 2322.000000,591.000000 1982.000000,591.000000 
M1347.997437,192.500000 
	C1347.997437,217.662262 1347.997192,242.824524 1347.997559,267.986786 
	C1347.997803,287.483459 1347.947266,306.980286 1348.020874,326.476685 
	C1348.057373,336.149353 1353.931885,342.879242 1362.982056,343.060455 
	C1376.473389,343.330597 1389.977173,343.274353 1403.470459,343.047119 
	C1411.183105,342.917267 1417.248291,336.867798 1417.976562,329.187469 
	C1418.180542,327.037567 1418.114380,324.858795 1418.114624,322.693268 
	C1418.120972,268.369232 1418.119629,214.045181 1418.119629,159.721130 
	C1418.119629,158.022614 1418.119629,156.324097 1418.119629,153.236710 
	C1419.725098,155.667480 1420.477783,156.740997 1421.163940,157.855377 
	C1437.830200,184.922760 1454.486938,211.995941 1471.150269,239.065125 
	C1490.082153,269.819580 1509.075806,300.536316 1527.914062,331.348022 
	C1532.751953,339.261017 1539.089722,343.690582 1548.739136,343.263672 
	C1557.553711,342.873718 1566.433716,342.688354 1575.222412,343.304077 
	C1586.613770,344.102142 1593.870239,339.230927 1599.689209,329.691956 
	C1633.664307,273.997528 1667.965210,218.501709 1702.163086,162.943085 
	C1703.863403,160.180695 1705.628052,157.457886 1708.198975,153.395386 
	C1708.198975,156.678818 1708.198975,158.434937 1708.198975,160.191055 
	C1708.198975,213.848557 1708.198608,267.506042 1708.200684,321.163544 
	C1708.200806,323.162994 1708.123901,325.169037 1708.254395,327.160767 
	C1708.911133,337.179504 1714.983276,343.062744 1724.975830,343.152985 
	C1736.639526,343.258331 1748.304932,343.199402 1759.969604,343.175446 
	C1772.627930,343.149475 1778.493530,337.673004 1778.506348,325.005768 
	C1778.593872,238.520660 1778.586304,152.035370 1778.513550,65.550217 
	C1778.503052,53.016098 1772.444336,47.213039 1759.990601,47.181015 
	C1744.160156,47.140308 1728.310913,47.639885 1712.504639,47.020351 
	C1700.027466,46.531300 1692.050171,50.992790 1685.351562,62.034542 
	C1646.853516,125.493607 1607.627319,188.511017 1568.643066,251.675186 
	C1566.960938,254.400742 1565.230835,257.096771 1563.211060,260.301636 
	C1557.770508,251.488312 1552.710205,243.292664 1547.651367,235.095978 
	C1511.727173,176.886932 1475.627319,118.784790 1440.053711,60.362259 
	C1434.177368,50.711678 1426.865845,46.816578 1415.991089,47.070763 
	C1399.669434,47.452271 1383.332397,47.156441 1367.001831,47.174534 
	C1353.905884,47.189045 1348.002197,53.049381 1348.000244,66.021446 
	C1347.993530,107.847633 1347.997559,149.673813 1347.997437,192.500000 
M1297.158813,312.499390 
	C1297.158325,230.342072 1297.166504,148.184753 1297.148926,66.027443 
	C1297.146118,52.904900 1291.380371,47.197983 1278.202637,47.177582 
	C1261.870972,47.152302 1245.532959,47.447067 1229.209839,47.074486 
	C1218.338013,46.826332 1211.042603,50.742397 1205.157715,60.388199 
	C1165.197021,125.887711 1124.743042,191.086243 1084.436768,256.374817 
	C1083.711792,257.549042 1082.844116,258.635254 1082.011841,259.806519 
	C1081.477173,259.325012 1081.318359,259.235046 1081.234375,259.098969 
	C1039.962524,192.256104 998.611816,125.461555 957.542908,58.494160 
	C952.813416,50.782185 946.642273,47.200844 937.980530,47.182693 
	C920.982300,47.147076 903.984009,47.169033 886.985718,47.172344 
	C872.123657,47.175236 866.812195,52.466362 866.811584,67.296822 
	C866.808105,152.621475 866.809631,237.946136 866.811523,323.270782 
	C866.811523,324.770416 866.789368,326.272339 866.859619,327.769348 
	C867.279175,336.712067 873.175720,342.937012 882.029602,343.083405 
	C895.357178,343.303833 908.703003,343.424713 922.014771,342.908752 
	C925.472107,342.774750 929.301331,340.713287 932.127136,338.482422 
	C936.482666,335.043793 936.999146,329.725586 936.994263,324.376587 
	C936.944153,269.548889 936.963684,214.721115 936.963684,159.893372 
	C936.963684,158.158417 936.963684,156.423477 936.963684,153.277435 
	C938.562073,155.776505 939.351990,156.972351 940.103333,158.191940 
	C959.658752,189.932678 979.213684,221.673752 998.761230,253.419357 
	C1014.731445,279.355347 1030.781372,305.242889 1046.604248,331.268555 
	C1051.556396,339.413910 1058.071777,343.725647 1067.881226,343.268372 
	C1076.860718,342.849792 1085.899536,342.763428 1094.868042,343.287140 
	C1105.673340,343.918091 1112.596924,339.161255 1118.092896,330.176208 
	C1153.177979,272.817017 1188.511963,215.610046 1223.771484,158.357635 
	C1224.578369,157.047577 1225.474609,155.792480 1227.011963,153.488388 
	C1227.011963,156.593933 1227.011963,158.382751 1227.011963,160.171570 
	C1227.011963,208.666641 1227.011230,257.161713 1227.013062,305.656769 
	C1227.013306,312.822632 1226.868652,319.992981 1227.071777,327.153290 
	C1227.344849,336.785431 1233.636353,343.030609 1243.213135,343.128479 
	C1256.043457,343.259613 1268.878174,343.280457 1281.707520,343.100220 
	C1290.577271,342.975616 1296.679810,336.859314 1297.057495,327.994934 
	C1297.263062,323.170288 1297.135986,318.331421 1297.158813,312.499390 
M105.500031,47.170769 
	C91.501366,47.170822 77.502701,47.166210 63.504036,47.172245 
	C49.477215,47.178295 43.294796,53.253666 43.247025,67.180534 
	C43.201862,80.345825 43.226948,93.511406 43.251083,106.676804 
	C43.254040,108.290016 43.442127,109.902885 43.573128,111.968605 
	C45.977089,111.968605 47.939259,111.968605 49.901424,111.968605 
	C143.059418,111.968605 236.217422,111.965775 329.375427,111.970718 
	C351.015991,111.971863 354.090424,115.082672 354.092865,136.928314 
	C354.097290,176.091339 354.098206,215.254349 354.086426,254.417374 
	C354.085480,257.582764 354.156647,260.763916 353.882446,263.910553 
	C353.075989,273.166687 348.867493,277.361298 339.657898,278.136719 
	C335.844025,278.457855 332.007294,278.656525 328.180908,278.657684 
	C235.189560,278.685760 142.198151,278.716095 49.207035,278.575104 
	C44.391159,278.567810 43.003838,279.870026 43.126156,284.673035 
	C43.452740,297.496826 43.231960,310.334473 43.238754,323.166595 
	C43.246471,337.753510 48.608463,343.179016 63.026608,343.179382 
	C156.017944,343.181763 249.009308,343.204926 342.000610,343.129303 
	C348.645111,343.123871 355.323761,342.690308 361.927307,341.936768 
	C392.551208,338.442230 413.338837,320.751831 420.450531,291.410583 
	C422.588470,282.589844 423.737305,273.317902 423.802094,264.241699 
	C424.130432,218.248383 424.034912,172.251144 423.864258,126.256119 
	C423.838470,119.298630 423.009644,112.286263 421.914703,105.400665 
	C417.293152,76.338829 399.624603,56.857994 371.185455,50.458435 
	C361.525574,48.284718 351.396881,47.339546 341.477753,47.308243 
	C263.152466,47.061050 184.826080,47.170834 105.500031,47.170769 
M2909.376953,299.123230 
	C2898.998047,289.235779 2888.619141,279.348328 2877.259277,268.526581 
	C2880.576416,267.812042 2882.139404,267.411346 2883.724609,267.145050 
	C2890.283447,266.043396 2896.916748,265.289398 2903.400635,263.855469 
	C2939.189697,255.940842 2957.151367,235.441208 2959.001709,198.938995 
	C2960.072021,177.829666 2959.762207,156.639374 2959.670654,135.487244 
	C2959.631104,126.356293 2959.302002,117.111206 2957.839844,108.123795 
	C2953.744385,82.955711 2941.066406,63.912117 2916.722168,53.953468 
	C2904.355713,48.894524 2891.337158,47.211761 2878.109375,47.202030 
	C2794.299316,47.140366 2710.489502,47.161156 2626.679443,47.180252 
	C2614.349854,47.183060 2608.191895,53.326385 2608.153809,65.578758 
	C2608.112061,79.074860 2608.362061,92.576591 2608.028076,106.064568 
	C2607.906738,110.964523 2609.470215,112.078445 2614.180664,112.070480 
	C2696.990723,111.930367 2779.800781,111.967323 2862.611084,111.975555 
	C2866.109131,111.975906 2869.619629,111.900101 2873.103271,112.151733 
	C2883.335693,112.890892 2887.288574,116.637489 2888.716064,126.806061 
	C2888.969727,128.612015 2888.986572,130.461365 2888.988770,132.290833 
	C2889.008545,149.286026 2889.051758,166.281540 2888.958252,183.276230 
	C2888.940186,186.583282 2888.590088,189.929565 2887.989502,193.183182 
	C2886.980225,198.646744 2883.602783,202.178391 2878.086182,203.039383 
	C2873.836426,203.702667 2869.490967,204.022949 2865.187256,204.028763 
	C2816.367676,204.094757 2767.547852,204.063583 2718.728271,204.096497 
	C2716.745850,204.097839 2714.763428,204.476334 2711.432617,204.816986 
	C2713.815674,207.408142 2715.148438,209.012741 2716.638428,210.454636 
	C2761.297119,253.669235 2805.948486,296.891541 2850.726807,339.981873 
	C2852.513916,341.701538 2855.523926,343.029266 2857.974609,343.046448 
	C2887.631592,343.254425 2917.290283,343.187012 2946.948730,343.166626 
	C2948.671875,343.165436 2950.395020,342.952240 2952.118164,342.837708 
	C2952.422852,342.298645 2952.727539,341.759552 2953.032227,341.220490 
	C2938.651611,327.349701 2924.270752,313.478912 2909.376953,299.123230 
M1973.500000,278.679535 
	C1957.339111,278.679535 1941.178223,278.711304 1925.017578,278.654266 
	C1921.526611,278.641937 1918.022583,278.449982 1914.549072,278.098145 
	C1905.115356,277.142487 1901.267700,273.396515 1900.200317,263.999146 
	C1899.844604,260.867523 1899.943726,257.676971 1899.942993,254.513367 
	C1899.930054,191.869370 1899.938721,129.225372 1899.928223,66.581375 
	C1899.925903,52.969234 1894.097656,47.190239 1880.419922,47.173248 
	C1870.256958,47.160622 1860.093994,47.166016 1849.931030,47.171890 
	C1834.969849,47.180542 1829.159546,53.041313 1829.158936,68.136124 
	C1829.156128,130.280304 1829.130005,192.424515 1829.195312,254.568619 
	C1829.202759,261.721436 1829.495361,268.892059 1830.054565,276.023102 
	C1832.469971,306.817627 1849.872192,330.204041 1877.883423,338.406311 
	C1888.270264,341.447754 1899.476685,342.934906 1910.318359,342.980225 
	C1996.285767,343.339539 2082.255127,343.187744 2168.224121,343.171265 
	C2180.471191,343.168915 2186.520020,337.130707 2186.671387,324.720398 
	C2186.778564,315.891541 2186.705811,307.060333 2186.689697,298.230225 
	C2186.664062,284.141174 2181.148926,278.682373 2166.930420,278.681427 
	C2102.786865,278.677124 2038.643433,278.679474 1973.500000,278.679535 
M2216.118652,83.495613 
	C2216.125732,87.660461 2215.992920,91.831169 2216.167236,95.988998 
	C2216.586182,105.985794 2222.809570,111.957733 2232.806152,111.959328 
	C2334.597412,111.975555 2436.388672,111.980461 2538.179932,111.954529 
	C2549.775635,111.951576 2555.728516,106.014153 2555.854980,94.427010 
	C2555.953369,85.431793 2555.891846,76.434631 2555.873779,67.438385 
	C2555.844482,52.999470 2549.993896,47.169849 2535.555176,47.169685 
	C2436.762695,47.168564 2337.970215,47.169308 2239.177734,47.167652 
	C2237.012207,47.167614 2234.842773,47.058105 2232.681641,47.150322 
	C2224.367188,47.505116 2217.712646,53.301884 2216.925781,61.560200 
	C2216.264160,68.502045 2216.358887,75.515938 2216.118652,83.495613 
M474.910370,98.039444 
	C476.595886,107.341644 481.760254,111.951645 490.865967,111.953766 
	C592.995789,111.977531 695.125671,111.984482 797.255493,111.942413 
	C808.135681,111.937927 813.996216,106.124245 814.161499,95.337135 
	C814.306946,85.842751 814.228394,76.344376 814.195618,66.847946 
	C814.147156,52.805958 808.471436,47.171448 794.424011,47.170883 
	C693.960205,47.166840 593.496460,47.168026 493.032684,47.161762 
	C482.087860,47.161079 475.418243,53.169319 475.049530,64.153282 
	C474.680878,75.136108 474.896576,86.138550 474.910370,98.039444 
M758.500000,343.178833 
	C772.326355,343.176849 786.153320,343.259125 799.978760,343.144196 
	C809.683655,343.063507 815.617798,337.470337 815.880371,327.714905 
	C816.189514,316.229034 816.112915,304.726379 815.922546,293.235657 
	C815.795837,285.588531 810.672852,280.081940 803.094971,279.013092 
	C800.635376,278.666168 798.110962,278.694244 795.616150,278.693878 
	C695.166199,278.679565 594.715881,278.825989 494.266846,278.523376 
	C479.499969,278.478882 474.673767,286.787018 474.782684,297.955139 
	C474.865509,306.450012 474.778442,314.946442 474.784210,323.442200 
	C474.794189,338.151917 479.843628,343.176544 494.631042,343.177094 
	C582.254028,343.180328 669.877014,343.178802 758.500000,343.178833 
M2551.530518,340.189911 
	C2555.556885,336.896393 2557.301758,332.503479 2557.339111,327.449524 
	C2557.424316,315.953705 2557.571533,304.452576 2557.317139,292.961975 
	C2557.145508,285.204132 2552.011963,279.947937 2544.297119,278.974762 
	C2541.829590,278.663513 2539.309570,278.692749 2536.813721,278.692413 
	C2439.836426,278.679657 2342.859375,278.681427 2245.882080,278.681824 
	C2241.216553,278.681854 2236.548096,278.582275 2231.886230,278.712036 
	C2223.606934,278.942444 2217.555908,283.774963 2217.037109,291.925964 
	C2216.266602,304.030212 2215.956787,316.211761 2216.374756,328.328491 
	C2216.703369,337.853058 2223.167236,343.148132 2233.020508,343.151855 
	C2335.663086,343.190674 2438.305420,343.199371 2540.947754,343.071533 
	C2544.282471,343.067383 2547.614746,341.517975 2551.530518,340.189911 
M2474.500000,227.320435 
	C2494.331787,227.320190 2514.163574,227.372482 2533.995117,227.299866 
	C2545.833984,227.256531 2551.447266,221.703476 2551.607910,209.841949 
	C2551.745605,199.678055 2551.735352,189.509354 2551.598145,179.345352 
	C2551.459473,169.054047 2545.277832,163.109787 2534.870361,163.081711 
	C2520.038330,163.041702 2505.206055,163.073425 2490.374023,163.070969 
	C2404.881348,163.056870 2319.388428,163.043320 2233.895752,163.024734 
	C2224.311523,163.022644 2217.806396,168.324066 2217.095215,177.803024 
	C2216.337402,187.907425 2216.841309,198.110001 2216.001953,208.203827 
	C2215.112305,218.904175 2221.929199,227.591049 2235.020752,227.523834 
	C2314.512207,227.115662 2394.006592,227.320480 2474.500000,227.320435 
M762.499939,227.319717 
	C772.831909,227.317307 783.165405,227.426559 793.495361,227.281525 
	C804.124573,227.132278 809.896362,221.353287 809.998779,210.841614 
	C810.102722,200.177383 810.089355,189.510727 809.998169,178.846252 
	C809.917053,169.361542 803.802368,163.105972 794.384827,163.100250 
	C693.398071,163.039001 592.411316,163.023712 491.424530,163.034424 
	C483.269745,163.035294 476.467010,168.275391 475.909729,176.302963 
	C475.023834,189.064728 475.069153,201.899963 475.053284,214.704529 
	C475.050659,216.811646 476.457123,219.116821 477.716278,220.992065 
	C481.363251,226.423294 486.843292,227.391907 493.034515,227.385284 
	C582.522888,227.289490 672.011414,227.319794 762.499939,227.319717 
M1208.500122,441.666504 
	C1177.898560,441.666504 1147.297119,441.666504 1116.580444,441.666504 
	C1116.580444,474.049103 1116.580444,505.798401 1116.580444,537.681396 
	C1155.535522,537.681396 1194.232422,537.681396 1232.888916,537.681396 
	C1232.888916,534.057800 1232.888916,530.781494 1232.888916,526.944946 
	C1197.957520,526.944946 1163.255859,526.944946 1128.535889,526.944946 
	C1128.535889,515.638794 1128.535889,504.904968 1128.535889,493.864136 
	C1162.155273,493.864136 1195.441650,493.864136 1228.950073,493.864136 
	C1228.950073,490.331299 1228.950073,487.117096 1228.950073,483.520355 
	C1195.332031,483.520355 1162.063232,483.520355 1128.575928,483.520355 
	C1128.575928,473.097382 1128.575928,463.063690 1128.575928,452.576660 
	C1163.537842,452.576660 1198.127441,452.576660 1232.782959,452.576660 
	C1232.782959,448.730499 1232.782959,445.345886 1232.782959,441.666870 
	C1224.797363,441.666870 1217.148804,441.666870 1208.500122,441.666504 
M885.272522,516.276245 
	C864.831177,498.839233 868.890381,469.909973 893.414124,458.053558 
	C905.222961,452.344391 917.890381,450.548767 930.758972,450.272888 
	C953.492615,449.785492 975.496521,453.232788 996.258728,464.409851 
	C997.808716,461.011780 999.216248,457.926086 1000.715759,454.638763 
	C998.903870,453.637268 997.505310,452.757080 996.019104,452.065277 
	C993.006287,450.662842 990.000671,449.217987 986.896423,448.043182 
	C964.919861,439.726135 942.067871,438.478241 918.986816,440.373291 
	C905.451294,441.484619 892.452393,445.044525 880.796143,452.442963 
	C854.558167,469.096649 852.277283,504.490662 876.899109,523.403137 
	C884.218567,529.025391 893.250732,533.201599 902.151062,535.826843 
	C924.129089,542.309265 946.628845,541.016602 968.983948,537.305786 
	C980.116150,535.457947 990.688843,532.034546 998.919495,523.711121 
	C1000.147705,522.468994 1001.726624,520.786011 1001.760132,519.276245 
	C1002.003052,508.342560 1001.890503,497.401001 1001.890503,486.318481 
	C979.073730,486.318481 956.825073,486.318481 934.465454,486.318481 
	C934.465454,489.600922 934.465454,492.612213 934.465454,495.998230 
	C953.130188,495.998230 971.379883,495.998230 989.987183,495.998230 
	C989.987183,499.509094 989.987122,502.646698 989.987122,505.784302 
	C989.987122,519.155762 988.789429,520.770935 975.825806,524.817993 
	C974.556396,525.214294 973.277283,525.596924 971.980225,525.884949 
	C954.904297,529.676270 937.590210,530.096191 920.286133,528.641296 
	C907.925903,527.601990 896.020264,524.434265 885.272522,516.276245 
M1693.517212,538.023743 
	C1728.572510,538.023743 1763.627686,538.023743 1798.491943,538.023743 
	C1798.491943,533.888123 1798.491943,530.626648 1798.491943,526.816467 
	C1763.450928,526.816467 1728.742188,526.816467 1694.287842,526.816467 
	C1694.287842,515.505920 1694.287842,504.762268 1694.287842,493.669373 
	C1727.938110,493.669373 1761.203369,493.669373 1794.637451,493.669373 
	C1794.637451,490.238586 1794.637451,487.175842 1794.637451,483.558655 
	C1760.954712,483.558655 1727.566528,483.558655 1694.151367,483.558655 
	C1694.151367,473.059052 1694.151367,463.119629 1694.151367,452.569275 
	C1729.101929,452.569275 1763.808472,452.569275 1798.529785,452.569275 
	C1798.529785,448.692139 1798.529785,445.433044 1798.529785,441.953705 
	C1759.653198,441.953705 1721.074707,441.953705 1682.286255,441.953705 
	C1682.286255,474.008606 1682.286255,505.876984 1682.286255,538.023743 
	C1685.905396,538.023743 1689.214355,538.023743 1693.517212,538.023743 
M2416.500000,538.023254 
	C2444.571777,538.023254 2472.643311,538.023254 2500.654297,538.023254 
	C2500.654297,534.009094 2500.654297,530.743774 2500.654297,526.956421 
	C2465.684082,526.956421 2430.977295,526.956421 2396.267822,526.956421 
	C2396.267822,515.677673 2396.267822,504.935974 2396.267822,493.702515 
	C2429.942871,493.702515 2463.331543,493.702515 2496.679199,493.702515 
	C2496.679199,490.119446 2496.679199,487.038757 2496.679199,483.453247 
	C2462.970947,483.453247 2429.588135,483.453247 2396.235840,483.453247 
	C2396.235840,472.997101 2396.235840,463.056793 2396.235840,452.554443 
	C2431.203125,452.554443 2465.917480,452.554443 2500.648926,452.554443 
	C2500.648926,448.716156 2500.648926,445.451996 2500.648926,442.101440 
	C2461.691406,442.101440 2423.008545,442.101440 2384.321045,442.101440 
	C2384.321045,474.208344 2384.321045,505.939789 2384.321045,538.023254 
	C2394.903809,538.023254 2405.201904,538.023254 2416.500000,538.023254 
M2158.225586,497.499969 
	C2158.225586,510.924591 2158.225586,524.349243 2158.225586,537.751099 
	C2162.527344,537.751099 2166.129150,537.751099 2170.254639,537.751099 
	C2170.254639,527.448059 2170.254639,517.388977 2170.254639,507.042999 
	C2185.419189,507.042999 2200.054932,506.931885 2214.685547,507.152893 
	C2217.108643,507.189514 2219.906738,508.141235 2221.854248,509.584137 
	C2231.615479,516.816101 2241.773682,523.691589 2250.576416,531.983154 
	C2258.086914,539.057434 2266.264648,538.114319 2275.912354,537.800659 
	C2262.183594,527.078186 2249.215576,516.949951 2236.124756,506.725769 
	C2242.937256,505.241791 2249.222900,504.339935 2255.208252,502.474945 
	C2269.156982,498.128632 2275.349609,489.494751 2275.511963,475.167053 
	C2275.675781,460.732574 2269.517090,451.172333 2255.528076,447.152832 
	C2246.032227,444.424316 2236.012451,442.593018 2226.157715,442.228638 
	C2204.701416,441.435333 2183.200928,441.828796 2161.718506,441.770966 
	C2160.636719,441.768066 2159.553711,442.083069 2158.225586,442.287933 
	C2158.225586,460.568817 2158.225586,478.534393 2158.225586,497.499969 
M1345.783569,538.004883 
	C1348.555176,538.004883 1351.326782,538.004883 1354.593018,538.004883 
	C1354.593018,511.642853 1354.593018,485.946259 1354.593018,459.523163 
	C1394.600464,486.953918 1433.919556,513.912720 1473.650879,541.154236 
	C1473.650879,507.592621 1473.650879,474.867096 1473.650879,442.135956 
	C1469.651001,442.135956 1465.945068,442.135956 1461.804443,442.135956 
	C1461.804443,468.211029 1461.804443,493.905579 1461.804443,520.293213 
	C1421.902222,492.872681 1382.628662,465.884216 1343.470215,438.974792 
	C1342.904541,439.490662 1342.673706,439.602692 1342.673462,439.715302 
	C1342.605347,471.536774 1342.533081,503.358276 1342.600220,535.179565 
	C1342.602173,536.121826 1344.074829,537.061035 1345.783569,538.004883 
M653.659424,465.860626 
	C640.579773,456.863495 627.500122,447.866394 614.032654,438.602570 
	C614.032654,472.209015 614.032654,504.931885 614.032654,537.756348 
	C617.928223,537.756348 621.510986,537.756348 625.644897,537.756348 
	C625.644897,511.823303 625.644897,486.132812 625.644897,459.484039 
	C665.751953,486.982391 705.033203,513.914551 744.607544,541.047668 
	C744.607544,507.565613 744.607544,474.742798 744.607544,442.084595 
	C740.615540,442.084595 737.023743,442.084595 732.998657,442.084595 
	C732.998657,468.110779 732.998657,493.809357 732.998657,520.368164 
	C706.287354,501.990997 680.286682,484.102722 653.659424,465.860626 
M1967.595459,529.058777 
	C1960.028809,528.040771 1952.309204,527.657776 1944.925781,525.878906 
	C1926.846680,521.523132 1919.030884,511.129150 1918.968872,492.619598 
	C1918.946533,485.955994 1918.964355,479.292297 1918.964233,472.628632 
	C1918.963989,462.505676 1918.964111,452.382721 1918.964111,442.059631 
	C1914.795288,442.059631 1911.090088,442.059631 1907.208862,442.059631 
	C1907.208862,461.997131 1906.609985,481.647339 1907.406860,501.240753 
	C1907.995605,515.715698 1916.077271,526.068604 1929.347046,532.105225 
	C1948.504272,540.820190 1968.780518,540.790161 1989.154541,539.432495 
	C1999.996338,538.710083 2010.613159,536.630432 2020.452515,531.717712 
	C2034.350586,524.778503 2041.911865,513.643494 2042.090332,497.955811 
	C2042.258911,483.131226 2042.170044,468.303741 2042.191650,453.477509 
	C2042.197144,449.696991 2042.192505,445.916473 2042.192505,442.006134 
	C2038.023926,442.006134 2034.440552,442.006134 2030.322388,442.006134 
	C2030.322388,444.052734 2030.322632,445.844360 2030.322388,447.635986 
	C2030.320312,462.962402 2030.431885,478.289886 2030.285400,493.614899 
	C2030.125122,510.394379 2023.122192,519.783936 2007.107544,525.015381 
	C1994.562256,529.113525 1981.590698,529.362610 1967.595459,529.058777 
M1573.234619,442.128754 
	C1573.114746,443.109070 1572.890869,444.089325 1572.890259,445.069702 
	C1572.872192,475.049011 1572.872925,505.028320 1572.891357,535.007629 
	C1572.891968,535.941101 1573.111816,536.874451 1573.222656,537.754150 
	C1577.146606,537.754150 1580.736816,537.754150 1584.548584,537.754150 
	C1584.548584,505.740570 1584.548584,473.998779 1584.548584,441.753357 
	C1580.956421,441.753357 1577.500854,441.753357 1573.234619,442.128754 
M502.082275,499.500000 
	C502.082275,512.250183 502.082275,525.000366 502.082275,537.806702 
	C506.343445,537.806702 509.943054,537.806702 513.706909,537.806702 
	C513.706909,505.736603 513.706909,473.879700 513.706909,441.971771 
	C509.806458,441.971771 506.206512,441.971771 502.082275,441.971771 
	C502.082275,460.971008 502.082275,479.735504 502.082275,499.500000 
z"/>
<path fill="#595D3C" opacity="1.000000" stroke="none" 
	d="
M1347.997437,192.000000 
	C1347.997559,149.673813 1347.993530,107.847633 1348.000244,66.021446 
	C1348.002197,53.049381 1353.905884,47.189045 1367.001831,47.174534 
	C1383.332397,47.156441 1399.669434,47.452271 1415.991089,47.070763 
	C1426.865845,46.816578 1434.177368,50.711678 1440.053711,60.362259 
	C1475.627319,118.784790 1511.727173,176.886932 1547.651367,235.095978 
	C1552.710205,243.292664 1557.770508,251.488312 1563.211060,260.301636 
	C1565.230835,257.096771 1566.960938,254.400742 1568.643066,251.675186 
	C1607.627319,188.511017 1646.853516,125.493607 1685.351562,62.034542 
	C1692.050171,50.992790 1700.027466,46.531300 1712.504639,47.020351 
	C1728.310913,47.639885 1744.160156,47.140308 1759.990601,47.181015 
	C1772.444336,47.213039 1778.503052,53.016098 1778.513550,65.550217 
	C1778.586304,152.035370 1778.593872,238.520660 1778.506348,325.005768 
	C1778.493530,337.673004 1772.627930,343.149475 1759.969604,343.175446 
	C1748.304932,343.199402 1736.639526,343.258331 1724.975830,343.152985 
	C1714.983276,343.062744 1708.911133,337.179504 1708.254395,327.160767 
	C1708.123901,325.169037 1708.200806,323.162994 1708.200684,321.163544 
	C1708.198608,267.506042 1708.198975,213.848557 1708.198975,160.191055 
	C1708.198975,158.434937 1708.198975,156.678818 1708.198975,153.395386 
	C1705.628052,157.457886 1703.863403,160.180695 1702.163086,162.943085 
	C1667.965210,218.501709 1633.664307,273.997528 1599.689209,329.691956 
	C1593.870239,339.230927 1586.613770,344.102142 1575.222412,343.304077 
	C1566.433716,342.688354 1557.553711,342.873718 1548.739136,343.263672 
	C1539.089722,343.690582 1532.751953,339.261017 1527.914062,331.348022 
	C1509.075806,300.536316 1490.082153,269.819580 1471.150269,239.065125 
	C1454.486938,211.995941 1437.830200,184.922760 1421.163940,157.855377 
	C1420.477783,156.740997 1419.725098,155.667480 1418.119629,153.236710 
	C1418.119629,156.324097 1418.119629,158.022614 1418.119629,159.721130 
	C1418.119629,214.045181 1418.120972,268.369232 1418.114624,322.693268 
	C1418.114380,324.858795 1418.180542,327.037567 1417.976562,329.187469 
	C1417.248291,336.867798 1411.183105,342.917267 1403.470459,343.047119 
	C1389.977173,343.274353 1376.473389,343.330597 1362.982056,343.060455 
	C1353.931885,342.879242 1348.057373,336.149353 1348.020874,326.476685 
	C1347.947266,306.980286 1347.997803,287.483459 1347.997559,267.986786 
	C1347.997192,242.824524 1347.997437,217.662262 1347.997437,192.000000 
z"/>
<path fill="#585C3B" opacity="1.000000" stroke="none" 
	d="
M1297.158813,312.999207 
	C1297.135986,318.331421 1297.263062,323.170288 1297.057495,327.994934 
	C1296.679810,336.859314 1290.577271,342.975616 1281.707520,343.100220 
	C1268.878174,343.280457 1256.043457,343.259613 1243.213135,343.128479 
	C1233.636353,343.030609 1227.344849,336.785431 1227.071777,327.153290 
	C1226.868652,319.992981 1227.013306,312.822632 1227.013062,305.656769 
	C1227.011230,257.161713 1227.011963,208.666641 1227.011963,160.171570 
	C1227.011963,158.382751 1227.011963,156.593933 1227.011963,153.488388 
	C1225.474609,155.792480 1224.578369,157.047577 1223.771484,158.357635 
	C1188.511963,215.610046 1153.177979,272.817017 1118.092896,330.176208 
	C1112.596924,339.161255 1105.673340,343.918091 1094.868042,343.287140 
	C1085.899536,342.763428 1076.860718,342.849792 1067.881226,343.268372 
	C1058.071777,343.725647 1051.556396,339.413910 1046.604248,331.268555 
	C1030.781372,305.242889 1014.731445,279.355347 998.761230,253.419357 
	C979.213684,221.673752 959.658752,189.932678 940.103333,158.191940 
	C939.351990,156.972351 938.562073,155.776505 936.963684,153.277435 
	C936.963684,156.423477 936.963684,158.158417 936.963684,159.893372 
	C936.963684,214.721115 936.944153,269.548889 936.994263,324.376587 
	C936.999146,329.725586 936.482666,335.043793 932.127136,338.482422 
	C929.301331,340.713287 925.472107,342.774750 922.014771,342.908752 
	C908.703003,343.424713 895.357178,343.303833 882.029602,343.083405 
	C873.175720,342.937012 867.279175,336.712067 866.859619,327.769348 
	C866.789368,326.272339 866.811523,324.770416 866.811523,323.270782 
	C866.809631,237.946136 866.808105,152.621475 866.811584,67.296822 
	C866.812195,52.466362 872.123657,47.175236 886.985718,47.172344 
	C903.984009,47.169033 920.982300,47.147076 937.980530,47.182693 
	C946.642273,47.200844 952.813416,50.782185 957.542908,58.494160 
	C998.611816,125.461555 1039.962524,192.256104 1081.234375,259.098969 
	C1081.318359,259.235046 1081.477173,259.325012 1082.011841,259.806519 
	C1082.844116,258.635254 1083.711792,257.549042 1084.436768,256.374817 
	C1124.743042,191.086243 1165.197021,125.887711 1205.157715,60.388199 
	C1211.042603,50.742397 1218.338013,46.826332 1229.209839,47.074486 
	C1245.532959,47.447067 1261.870972,47.152302 1278.202637,47.177582 
	C1291.380371,47.197983 1297.146118,52.904900 1297.148926,66.027443 
	C1297.166504,148.184753 1297.158325,230.342072 1297.158813,312.999207 
z"/>
<path fill="#595D3C" opacity="1.000000" stroke="none" 
	d="
M106.000031,47.170792 
	C184.826080,47.170834 263.152466,47.061050 341.477753,47.308243 
	C351.396881,47.339546 361.525574,48.284718 371.185455,50.458435 
	C399.624603,56.857994 417.293152,76.338829 421.914703,105.400665 
	C423.009644,112.286263 423.838470,119.298630 423.864258,126.256119 
	C424.034912,172.251144 424.130432,218.248383 423.802094,264.241699 
	C423.737305,273.317902 422.588470,282.589844 420.450531,291.410583 
	C413.338837,320.751831 392.551208,338.442230 361.927307,341.936768 
	C355.323761,342.690308 348.645111,343.123871 342.000610,343.129303 
	C249.009308,343.204926 156.017944,343.181763 63.026608,343.179382 
	C48.608463,343.179016 43.246471,337.753510 43.238754,323.166595 
	C43.231960,310.334473 43.452740,297.496826 43.126156,284.673035 
	C43.003838,279.870026 44.391159,278.567810 49.207035,278.575104 
	C142.198151,278.716095 235.189560,278.685760 328.180908,278.657684 
	C332.007294,278.656525 335.844025,278.457855 339.657898,278.136719 
	C348.867493,277.361298 353.075989,273.166687 353.882446,263.910553 
	C354.156647,260.763916 354.085480,257.582764 354.086426,254.417374 
	C354.098206,215.254349 354.097290,176.091339 354.092865,136.928314 
	C354.090424,115.082672 351.015991,111.971863 329.375427,111.970718 
	C236.217422,111.965775 143.059418,111.968605 49.901424,111.968605 
	C47.939259,111.968605 45.977089,111.968605 43.573128,111.968605 
	C43.442127,109.902885 43.254040,108.290016 43.251083,106.676804 
	C43.226948,93.511406 43.201862,80.345825 43.247025,67.180534 
	C43.294796,53.253666 49.477215,47.178295 63.504036,47.172245 
	C77.502701,47.166210 91.501366,47.170822 106.000031,47.170792 
z"/>
<path fill="#595D3C" opacity="1.000000" stroke="none" 
	d="
M2909.633545,299.365662 
	C2924.270752,313.478912 2938.651611,327.349701 2953.032227,341.220490 
	C2952.727539,341.759552 2952.422852,342.298645 2952.118164,342.837708 
	C2950.395020,342.952240 2948.671875,343.165436 2946.948730,343.166626 
	C2917.290283,343.187012 2887.631592,343.254425 2857.974609,343.046448 
	C2855.523926,343.029266 2852.513916,341.701538 2850.726807,339.981873 
	C2805.948486,296.891541 2761.297119,253.669235 2716.638428,210.454636 
	C2715.148438,209.012741 2713.815674,207.408142 2711.432617,204.816986 
	C2714.763428,204.476334 2716.745850,204.097839 2718.728271,204.096497 
	C2767.547852,204.063583 2816.367676,204.094757 2865.187256,204.028763 
	C2869.490967,204.022949 2873.836426,203.702667 2878.086182,203.039383 
	C2883.602783,202.178391 2886.980225,198.646744 2887.989502,193.183182 
	C2888.590088,189.929565 2888.940186,186.583282 2888.958252,183.276230 
	C2889.051758,166.281540 2889.008545,149.286026 2888.988770,132.290833 
	C2888.986572,130.461365 2888.969727,128.612015 2888.716064,126.806061 
	C2887.288574,116.637489 2883.335693,112.890892 2873.103271,112.151733 
	C2869.619629,111.900101 2866.109131,111.975906 2862.611084,111.975555 
	C2779.800781,111.967323 2696.990723,111.930367 2614.180664,112.070480 
	C2609.470215,112.078445 2607.906738,110.964523 2608.028076,106.064568 
	C2608.362061,92.576591 2608.112061,79.074860 2608.153809,65.578758 
	C2608.191895,53.326385 2614.349854,47.183060 2626.679443,47.180252 
	C2710.489502,47.161156 2794.299316,47.140366 2878.109375,47.202030 
	C2891.337158,47.211761 2904.355713,48.894524 2916.722168,53.953468 
	C2941.066406,63.912117 2953.744385,82.955711 2957.839844,108.123795 
	C2959.302002,117.111206 2959.631104,126.356293 2959.670654,135.487244 
	C2959.762207,156.639374 2960.072021,177.829666 2959.001709,198.938995 
	C2957.151367,235.441208 2939.189697,255.940842 2903.400635,263.855469 
	C2896.916748,265.289398 2890.283447,266.043396 2883.724609,267.145050 
	C2882.139404,267.411346 2880.576416,267.812042 2877.259277,268.526581 
	C2888.619141,279.348328 2898.998047,289.235779 2909.633545,299.365662 
z"/>
<path fill="#595D3C" opacity="1.000000" stroke="none" 
	d="
M1974.000000,278.679474 
	C2038.643433,278.679474 2102.786865,278.677124 2166.930420,278.681427 
	C2181.148926,278.682373 2186.664062,284.141174 2186.689697,298.230225 
	C2186.705811,307.060333 2186.778564,315.891541 2186.671387,324.720398 
	C2186.520020,337.130707 2180.471191,343.168915 2168.224121,343.171265 
	C2082.255127,343.187744 1996.285767,343.339539 1910.318359,342.980225 
	C1899.476685,342.934906 1888.270264,341.447754 1877.883423,338.406311 
	C1849.872192,330.204041 1832.469971,306.817627 1830.054565,276.023102 
	C1829.495361,268.892059 1829.202759,261.721436 1829.195312,254.568619 
	C1829.130005,192.424515 1829.156128,130.280304 1829.158936,68.136124 
	C1829.159546,53.041313 1834.969849,47.180542 1849.931030,47.171890 
	C1860.093994,47.166016 1870.256958,47.160622 1880.419922,47.173248 
	C1894.097656,47.190239 1899.925903,52.969234 1899.928223,66.581375 
	C1899.938721,129.225372 1899.930054,191.869370 1899.942993,254.513367 
	C1899.943726,257.676971 1899.844604,260.867523 1900.200317,263.999146 
	C1901.267700,273.396515 1905.115356,277.142487 1914.549072,278.098145 
	C1918.022583,278.449982 1921.526611,278.641937 1925.017578,278.654266 
	C1941.178223,278.711304 1957.339111,278.679535 1974.000000,278.679474 
z"/>
<path fill="#595D3C" opacity="1.000000" stroke="none" 
	d="
M2216.118652,82.996780 
	C2216.358887,75.515938 2216.264160,68.502045 2216.925781,61.560200 
	C2217.712646,53.301884 2224.367188,47.505116 2232.681641,47.150322 
	C2234.842773,47.058105 2237.012207,47.167614 2239.177734,47.167652 
	C2337.970215,47.169308 2436.762695,47.168564 2535.555176,47.169685 
	C2549.993896,47.169849 2555.844482,52.999470 2555.873779,67.438385 
	C2555.891846,76.434631 2555.953369,85.431793 2555.854980,94.427010 
	C2555.728516,106.014153 2549.775635,111.951576 2538.179932,111.954529 
	C2436.388672,111.980461 2334.597412,111.975555 2232.806152,111.959328 
	C2222.809570,111.957733 2216.586182,105.985794 2216.167236,95.988998 
	C2215.992920,91.831169 2216.125732,87.660461 2216.118652,82.996780 
z"/>
<path fill="#595D3C" opacity="1.000000" stroke="none" 
	d="
M474.883240,97.585922 
	C474.896576,86.138550 474.680878,75.136108 475.049530,64.153282 
	C475.418243,53.169319 482.087860,47.161079 493.032684,47.161762 
	C593.496460,47.168026 693.960205,47.166840 794.424011,47.170883 
	C808.471436,47.171448 814.147156,52.805958 814.195618,66.847946 
	C814.228394,76.344376 814.306946,85.842751 814.161499,95.337135 
	C813.996216,106.124245 808.135681,111.937927 797.255493,111.942413 
	C695.125671,111.984482 592.995789,111.977531 490.865967,111.953766 
	C481.760254,111.951645 476.595886,107.341644 474.883240,97.585922 
z"/>
<path fill="#585C3B" opacity="1.000000" stroke="none" 
	d="
M758.000000,343.178864 
	C669.877014,343.178802 582.254028,343.180328 494.631042,343.177094 
	C479.843628,343.176544 474.794189,338.151917 474.784210,323.442200 
	C474.778442,314.946442 474.865509,306.450012 474.782684,297.955139 
	C474.673767,286.787018 479.499969,278.478882 494.266846,278.523376 
	C594.715881,278.825989 695.166199,278.679565 795.616150,278.693878 
	C798.110962,278.694244 800.635376,278.666168 803.094971,279.013092 
	C810.672852,280.081940 815.795837,285.588531 815.922546,293.235657 
	C816.112915,304.726379 816.189514,316.229034 815.880371,327.714905 
	C815.617798,337.470337 809.683655,343.063507 799.978760,343.144196 
	C786.153320,343.259125 772.326355,343.176849 758.000000,343.178864 
z"/>
<path fill="#585C3B" opacity="1.000000" stroke="none" 
	d="
M2551.239258,340.439392 
	C2547.614746,341.517975 2544.282471,343.067383 2540.947754,343.071533 
	C2438.305420,343.199371 2335.663086,343.190674 2233.020508,343.151855 
	C2223.167236,343.148132 2216.703369,337.853058 2216.374756,328.328491 
	C2215.956787,316.211761 2216.266602,304.030212 2217.037109,291.925964 
	C2217.555908,283.774963 2223.606934,278.942444 2231.886230,278.712036 
	C2236.548096,278.582275 2241.216553,278.681854 2245.882080,278.681824 
	C2342.859375,278.681427 2439.836426,278.679657 2536.813721,278.692413 
	C2539.309570,278.692749 2541.829590,278.663513 2544.297119,278.974762 
	C2552.011963,279.947937 2557.145508,285.204132 2557.317139,292.961975 
	C2557.571533,304.452576 2557.424316,315.953705 2557.339111,327.449524 
	C2557.301758,332.503479 2555.556885,336.896393 2551.239258,340.439392 
z"/>
<path fill="#595D3C" opacity="1.000000" stroke="none" 
	d="
M2474.000000,227.320526 
	C2394.006592,227.320480 2314.512207,227.115662 2235.020752,227.523834 
	C2221.929199,227.591049 2215.112305,218.904175 2216.001953,208.203827 
	C2216.841309,198.110001 2216.337402,187.907425 2217.095215,177.803024 
	C2217.806396,168.324066 2224.311523,163.022644 2233.895752,163.024734 
	C2319.388428,163.043320 2404.881348,163.056870 2490.374023,163.070969 
	C2505.206055,163.073425 2520.038330,163.041702 2534.870361,163.081711 
	C2545.277832,163.109787 2551.459473,169.054047 2551.598145,179.345352 
	C2551.735352,189.509354 2551.745605,199.678055 2551.607910,209.841949 
	C2551.447266,221.703476 2545.833984,227.256531 2533.995117,227.299866 
	C2514.163574,227.372482 2494.331787,227.320190 2474.000000,227.320526 
z"/>
<path fill="#585C3B" opacity="1.000000" stroke="none" 
	d="
M761.999878,227.319794 
	C672.011414,227.319794 582.522888,227.289490 493.034515,227.385284 
	C486.843292,227.391907 481.363251,226.423294 477.716278,220.992065 
	C476.457123,219.116821 475.050659,216.811646 475.053284,214.704529 
	C475.069153,201.899963 475.023834,189.064728 475.909729,176.302963 
	C476.467010,168.275391 483.269745,163.035294 491.424530,163.034424 
	C592.411316,163.023712 693.398071,163.039001 794.384827,163.100250 
	C803.802368,163.105972 809.917053,169.361542 809.998169,178.846252 
	C810.089355,189.510727 810.102722,200.177383 809.998779,210.841614 
	C809.896362,221.353287 804.124573,227.132278 793.495361,227.281525 
	C783.165405,227.426559 772.831909,227.317307 761.999878,227.319794 
z"/>
<path fill="#5C6040" opacity="1.000000" stroke="none" 
	d="
M1209.000244,441.666687 
	C1217.148804,441.666870 1224.797363,441.666870 1232.782959,441.666870 
	C1232.782959,445.345886 1232.782959,448.730499 1232.782959,452.576660 
	C1198.127441,452.576660 1163.537842,452.576660 1128.575928,452.576660 
	C1128.575928,463.063690 1128.575928,473.097382 1128.575928,483.520355 
	C1162.063232,483.520355 1195.332031,483.520355 1228.950073,483.520355 
	C1228.950073,487.117096 1228.950073,490.331299 1228.950073,493.864136 
	C1195.441650,493.864136 1162.155273,493.864136 1128.535889,493.864136 
	C1128.535889,504.904968 1128.535889,515.638794 1128.535889,526.944946 
	C1163.255859,526.944946 1197.957520,526.944946 1232.888916,526.944946 
	C1232.888916,530.781494 1232.888916,534.057800 1232.888916,537.681396 
	C1194.232422,537.681396 1155.535522,537.681396 1116.580444,537.681396 
	C1116.580444,505.798401 1116.580444,474.049103 1116.580444,441.666504 
	C1147.297119,441.666504 1177.898560,441.666504 1209.000244,441.666687 
z"/>
<path fill="#5C6040" opacity="1.000000" stroke="none" 
	d="
M885.549927,516.503113 
	C896.020264,524.434265 907.925903,527.601990 920.286133,528.641296 
	C937.590210,530.096191 954.904297,529.676270 971.980225,525.884949 
	C973.277283,525.596924 974.556396,525.214294 975.825806,524.817993 
	C988.789429,520.770935 989.987122,519.155762 989.987122,505.784302 
	C989.987122,502.646698 989.987183,499.509094 989.987183,495.998230 
	C971.379883,495.998230 953.130188,495.998230 934.465454,495.998230 
	C934.465454,492.612213 934.465454,489.600922 934.465454,486.318481 
	C956.825073,486.318481 979.073730,486.318481 1001.890503,486.318481 
	C1001.890503,497.401001 1002.003052,508.342560 1001.760132,519.276245 
	C1001.726624,520.786011 1000.147705,522.468994 998.919495,523.711121 
	C990.688843,532.034546 980.116150,535.457947 968.983948,537.305786 
	C946.628845,541.016602 924.129089,542.309265 902.151062,535.826843 
	C893.250732,533.201599 884.218567,529.025391 876.899109,523.403137 
	C852.277283,504.490662 854.558167,469.096649 880.796143,452.442963 
	C892.452393,445.044525 905.451294,441.484619 918.986816,440.373291 
	C942.067871,438.478241 964.919861,439.726135 986.896423,448.043182 
	C990.000671,449.217987 993.006287,450.662842 996.019104,452.065277 
	C997.505310,452.757080 998.903870,453.637268 1000.715759,454.638763 
	C999.216248,457.926086 997.808716,461.011780 996.258728,464.409851 
	C975.496521,453.232788 953.492615,449.785492 930.758972,450.272888 
	C917.890381,450.548767 905.222961,452.344391 893.414124,458.053558 
	C868.890381,469.909973 864.831177,498.839233 885.549927,516.503113 
z"/>
<path fill="#5C5F3F" opacity="1.000000" stroke="none" 
	d="
M1693.020264,538.023743 
	C1689.214355,538.023743 1685.905396,538.023743 1682.286255,538.023743 
	C1682.286255,505.876984 1682.286255,474.008606 1682.286255,441.953705 
	C1721.074707,441.953705 1759.653198,441.953705 1798.529785,441.953705 
	C1798.529785,445.433044 1798.529785,448.692139 1798.529785,452.569275 
	C1763.808472,452.569275 1729.101929,452.569275 1694.151367,452.569275 
	C1694.151367,463.119629 1694.151367,473.059052 1694.151367,483.558655 
	C1727.566528,483.558655 1760.954712,483.558655 1794.637451,483.558655 
	C1794.637451,487.175842 1794.637451,490.238586 1794.637451,493.669373 
	C1761.203369,493.669373 1727.938110,493.669373 1694.287842,493.669373 
	C1694.287842,504.762268 1694.287842,515.505920 1694.287842,526.816467 
	C1728.742188,526.816467 1763.450928,526.816467 1798.491943,526.816467 
	C1798.491943,530.626648 1798.491943,533.888123 1798.491943,538.023743 
	C1763.627686,538.023743 1728.572510,538.023743 1693.020264,538.023743 
z"/>
<path fill="#5B5F3F" opacity="1.000000" stroke="none" 
	d="
M2416.000000,538.023254 
	C2405.201904,538.023254 2394.903809,538.023254 2384.321045,538.023254 
	C2384.321045,505.939789 2384.321045,474.208344 2384.321045,442.101440 
	C2423.008545,442.101440 2461.691406,442.101440 2500.648926,442.101440 
	C2500.648926,445.451996 2500.648926,448.716156 2500.648926,452.554443 
	C2465.917480,452.554443 2431.203125,452.554443 2396.235840,452.554443 
	C2396.235840,463.056793 2396.235840,472.997101 2396.235840,483.453247 
	C2429.588135,483.453247 2462.970947,483.453247 2496.679199,483.453247 
	C2496.679199,487.038757 2496.679199,490.119446 2496.679199,493.702515 
	C2463.331543,493.702515 2429.942871,493.702515 2396.267822,493.702515 
	C2396.267822,504.935974 2396.267822,515.677673 2396.267822,526.956421 
	C2430.977295,526.956421 2465.684082,526.956421 2500.654297,526.956421 
	C2500.654297,530.743774 2500.654297,534.009094 2500.654297,538.023254 
	C2472.643311,538.023254 2444.571777,538.023254 2416.000000,538.023254 
z"/>
<path fill="#5B5F3F" opacity="1.000000" stroke="none" 
	d="
M2158.225586,496.999939 
	C2158.225586,478.534393 2158.225586,460.568817 2158.225586,442.287933 
	C2159.553711,442.083069 2160.636719,441.768066 2161.718506,441.770966 
	C2183.200928,441.828796 2204.701416,441.435333 2226.157715,442.228638 
	C2236.012451,442.593018 2246.032227,444.424316 2255.528076,447.152832 
	C2269.517090,451.172333 2275.675781,460.732574 2275.511963,475.167053 
	C2275.349609,489.494751 2269.156982,498.128632 2255.208252,502.474945 
	C2249.222900,504.339935 2242.937256,505.241791 2236.124756,506.725769 
	C2249.215576,516.949951 2262.183594,527.078186 2275.912354,537.800659 
	C2266.264648,538.114319 2258.086914,539.057434 2250.576416,531.983154 
	C2241.773682,523.691589 2231.615479,516.816101 2221.854248,509.584137 
	C2219.906738,508.141235 2217.108643,507.189514 2214.685547,507.152893 
	C2200.054932,506.931885 2185.419189,507.042999 2170.254639,507.042999 
	C2170.254639,517.388977 2170.254639,527.448059 2170.254639,537.751099 
	C2166.129150,537.751099 2162.527344,537.751099 2158.225586,537.751099 
	C2158.225586,524.349243 2158.225586,510.924591 2158.225586,496.999939 
M2216.488037,451.973633 
	C2201.100830,451.973633 2185.713623,451.973633 2170.384277,451.973633 
	C2170.384277,467.301666 2170.384277,481.878448 2170.384277,496.465820 
	C2189.911621,496.465820 2209.171875,496.684509 2228.422607,496.347504 
	C2235.186035,496.229095 2242.014893,495.171356 2248.650879,493.769836 
	C2255.445557,492.334808 2261.010010,488.746979 2262.869873,481.357971 
	C2266.265625,467.866241 2260.812256,457.953888 2247.146729,455.146301 
	C2237.450684,453.154297 2227.383789,452.967407 2216.488037,451.973633 
z"/>
<path fill="#5A5E3D" opacity="1.000000" stroke="none" 
	d="
M1345.322754,538.003296 
	C1344.074829,537.061035 1342.602173,536.121826 1342.600220,535.179565 
	C1342.533081,503.358276 1342.605347,471.536774 1342.673462,439.715302 
	C1342.673706,439.602692 1342.904541,439.490662 1343.470215,438.974792 
	C1382.628662,465.884216 1421.902222,492.872681 1461.804443,520.293213 
	C1461.804443,493.905579 1461.804443,468.211029 1461.804443,442.135956 
	C1465.945068,442.135956 1469.651001,442.135956 1473.650879,442.135956 
	C1473.650879,474.867096 1473.650879,507.592621 1473.650879,541.154236 
	C1433.919556,513.912720 1394.600464,486.953918 1354.593018,459.523163 
	C1354.593018,485.946259 1354.593018,511.642853 1354.593018,538.004883 
	C1351.326782,538.004883 1348.555176,538.004883 1345.322754,538.003296 
z"/>
<path fill="#5A5E3D" opacity="1.000000" stroke="none" 
	d="
M653.972717,466.037537 
	C680.286682,484.102722 706.287354,501.990997 732.998657,520.368164 
	C732.998657,493.809357 732.998657,468.110779 732.998657,442.084595 
	C737.023743,442.084595 740.615540,442.084595 744.607544,442.084595 
	C744.607544,474.742798 744.607544,507.565613 744.607544,541.047668 
	C705.033203,513.914551 665.751953,486.982391 625.644897,459.484039 
	C625.644897,486.132812 625.644897,511.823303 625.644897,537.756348 
	C621.510986,537.756348 617.928223,537.756348 614.032654,537.756348 
	C614.032654,504.931885 614.032654,472.209015 614.032654,438.602570 
	C627.500122,447.866394 640.579773,456.863495 653.972717,466.037537 
z"/>
<path fill="#5C5F3F" opacity="1.000000" stroke="none" 
	d="
M1968.083740,529.063354 
	C1981.590698,529.362610 1994.562256,529.113525 2007.107544,525.015381 
	C2023.122192,519.783936 2030.125122,510.394379 2030.285400,493.614899 
	C2030.431885,478.289886 2030.320312,462.962402 2030.322388,447.635986 
	C2030.322632,445.844360 2030.322388,444.052734 2030.322388,442.006134 
	C2034.440552,442.006134 2038.023926,442.006134 2042.192505,442.006134 
	C2042.192505,445.916473 2042.197144,449.696991 2042.191650,453.477509 
	C2042.170044,468.303741 2042.258911,483.131226 2042.090332,497.955811 
	C2041.911865,513.643494 2034.350586,524.778503 2020.452515,531.717712 
	C2010.613159,536.630432 1999.996338,538.710083 1989.154541,539.432495 
	C1968.780518,540.790161 1948.504272,540.820190 1929.347046,532.105225 
	C1916.077271,526.068604 1907.995605,515.715698 1907.406860,501.240753 
	C1906.609985,481.647339 1907.208862,461.997131 1907.208862,442.059631 
	C1911.090088,442.059631 1914.795288,442.059631 1918.964111,442.059631 
	C1918.964111,452.382721 1918.963989,462.505676 1918.964233,472.628632 
	C1918.964355,479.292297 1918.946533,485.955994 1918.968872,492.619598 
	C1919.030884,511.129150 1926.846680,521.523132 1944.925781,525.878906 
	C1952.309204,527.657776 1960.028809,528.040771 1968.083740,529.063354 
z"/>
<path fill="#5C6040" opacity="1.000000" stroke="none" 
	d="
M1573.639893,441.941040 
	C1577.500854,441.753357 1580.956421,441.753357 1584.548584,441.753357 
	C1584.548584,473.998779 1584.548584,505.740570 1584.548584,537.754150 
	C1580.736816,537.754150 1577.146606,537.754150 1573.222656,537.754150 
	C1573.111816,536.874451 1572.891968,535.941101 1572.891357,535.007629 
	C1572.872925,505.028320 1572.872192,475.049011 1572.890259,445.069702 
	C1572.890869,444.089325 1573.114746,443.109070 1573.639893,441.941040 
z"/>
<path fill="#5A5E3D" opacity="1.000000" stroke="none" 
	d="
M502.082275,499.000000 
	C502.082275,479.735504 502.082275,460.971008 502.082275,441.971771 
	C506.206512,441.971771 509.806458,441.971771 513.706909,441.971771 
	C513.706909,473.879700 513.706909,505.736603 513.706909,537.806702 
	C509.943054,537.806702 506.343445,537.806702 502.082275,537.806702 
	C502.082275,525.000366 502.082275,512.250183 502.082275,499.000000 
z"/>
<path fill="#FEFEFE" opacity="1.000000" stroke="none" 
	d="
M2216.985352,451.974213 
	C2227.383789,452.967407 2237.450684,453.154297 2247.146729,455.146301 
	C2260.812256,457.953888 2266.265625,467.866241 2262.869873,481.357971 
	C2261.010010,488.746979 2255.445557,492.334808 2248.650879,493.769836 
	C2242.014893,495.171356 2235.186035,496.229095 2228.422607,496.347504 
	C2209.171875,496.684509 2189.911621,496.465820 2170.384277,496.465820 
	C2170.384277,481.878448 2170.384277,467.301666 2170.384277,451.973633 
	C2185.713623,451.973633 2201.100830,451.973633 2216.985352,451.974213 
z"/>
</svg>