<svg version="1.1" id="Layer_1" xmlns="http://www.w3.org/2000/svg" xmlns:xlink="http://www.w3.org/1999/xlink" x="0px" y="0px"
	 width="100%" viewBox="0 0 3125 1875" enable-background="new 0 0 3125 1875" xml:space="preserve">
<path fill="#FFFFFF" opacity="1.000000" stroke="none" 
	d="
M2074.000000,1878.000000 
	C1382.666626,1878.000000 692.333313,1878.000000 2.000000,1878.000000 
	C2.000000,1252.666626 2.000000,627.333313 2.000000,2.000000 
	C1044.000000,2.000000 2086.000000,2.000000 3128.000000,2.000000 
	C3128.000000,627.333313 3128.000000,1252.666626 3128.000000,1878.000000 
	C2777.000000,1878.000000 2426.000000,1878.000000 2074.000000,1878.000000 
M1412.310669,934.999634 
	C1412.313477,947.328735 1412.093140,959.663147 1412.387207,971.985291 
	C1412.638062,982.493408 1418.034668,988.900940 1427.892090,989.340637 
	C1441.192749,989.934021 1454.558716,989.895752 1467.861450,989.317810 
	C1476.562866,988.939819 1481.623291,983.090393 1482.358154,974.357910 
	C1482.636841,971.046387 1482.516968,967.698242 1482.517456,964.366821 
	C1482.525513,913.380737 1482.515503,862.394592 1482.544678,811.408508 
	C1482.546265,808.617798 1482.855591,805.827271 1483.129761,801.220825 
	C1485.448853,804.287720 1486.730591,805.726990 1487.728394,807.341736 
	C1497.182007,822.640625 1506.580322,837.973633 1516.007446,853.288818 
	C1541.146606,894.129883 1566.440552,934.876831 1591.324585,975.872681 
	C1597.123901,985.426697 1604.523071,990.339966 1615.788452,989.667419 
	C1622.429565,989.270874 1629.170410,989.039307 1635.767090,989.709534 
	C1650.259644,991.182129 1659.028320,984.750610 1666.438965,972.460693 
	C1699.284424,917.988953 1732.908081,863.986328 1766.275269,809.829529 
	C1767.739746,807.452698 1769.453003,805.229309 1772.106079,801.418091 
	C1772.363159,805.361816 1772.593018,807.264771 1772.595215,809.167908 
	C1772.620850,831.161926 1772.611816,853.155884 1772.612549,875.149902 
	C1772.613647,906.474670 1772.527954,937.799866 1772.654297,969.124084 
	C1772.714844,984.148010 1778.242065,989.464905 1793.341919,989.579407 
	C1803.005371,989.652649 1812.670166,989.647827 1822.333740,989.581177 
	C1837.576172,989.476135 1842.776733,984.349365 1843.093994,969.226685 
	C1843.149902,966.561890 1843.107300,963.895020 1843.107300,961.229065 
	C1843.107666,898.912720 1843.108398,836.596375 1843.107178,774.280029 
	C1843.106812,753.619019 1842.993896,732.957153 1843.142334,712.297241 
	C1843.219360,701.560486 1837.608765,692.984680 1823.978638,693.430908 
	C1807.001465,693.986633 1789.988770,693.770813 1772.998291,693.483948 
	C1762.944824,693.314209 1756.506104,697.470886 1751.196045,706.157715 
	C1711.940186,770.376282 1672.282227,834.349182 1632.716064,898.377869 
	C1631.282959,900.697144 1629.491821,902.795166 1627.421387,905.600830 
	C1624.670044,901.314270 1622.649292,898.271240 1620.732422,895.164307 
	C1581.560669,831.674988 1542.336792,768.217773 1503.326416,704.629456 
	C1498.864014,697.355713 1493.097900,693.560242 1484.672485,693.566772 
	C1466.344116,693.580994 1448.013672,693.398315 1429.688354,693.633057 
	C1418.315430,693.778687 1412.864746,699.525146 1412.338989,711.061218 
	C1412.217773,713.721802 1412.311157,716.392273 1412.311157,719.058228 
	C1412.310547,790.372131 1412.310669,861.685974 1412.310669,934.999634 
M1110.529297,976.483032 
	C1115.804810,986.485535 1124.186279,990.370789 1135.304443,989.674622 
	C1142.276978,989.238037 1149.334839,989.141602 1156.291138,989.691956 
	C1169.114990,990.706482 1177.326904,985.245850 1183.964966,974.305481 
	C1217.142334,919.623962 1250.843628,865.260376 1284.386841,810.801086 
	C1286.136719,807.960022 1288.127930,805.267578 1290.006714,802.505981 
	C1290.566406,802.817078 1291.125977,803.128235 1291.685547,803.439392 
	C1291.685547,806.700134 1291.685425,809.960876 1291.685547,813.221619 
	C1291.686035,865.220703 1291.655029,917.219910 1291.707031,969.218933 
	C1291.722412,984.473450 1296.834106,989.477600 1312.199829,989.578613 
	C1322.199219,989.644409 1332.200684,989.693848 1342.198853,989.566711 
	C1355.958618,989.391846 1361.680420,983.754944 1361.805176,970.108643 
	C1361.942505,955.110168 1361.840576,940.109436 1361.840454,925.109680 
	C1361.839722,854.777588 1361.860840,784.445435 1361.818726,714.113342 
	C1361.809570,698.787659 1356.704102,693.648560 1341.564453,693.579163 
	C1324.565063,693.501221 1307.564697,693.637695 1290.565552,693.536133 
	C1281.809692,693.483826 1275.611938,696.907715 1270.892944,704.618225 
	C1238.026245,758.320312 1204.885620,811.854675 1171.824341,865.437683 
	C1163.637939,878.705505 1155.421265,891.954590 1146.779663,905.921692 
	C1144.816650,903.134827 1143.206787,901.085815 1141.845825,898.883057 
	C1102.097412,834.552551 1062.250366,770.282166 1022.791687,705.774292 
	C1017.429260,697.007751 1010.725830,693.276245 1000.763794,693.481262 
	C985.770386,693.789795 970.741089,694.107361 955.772217,693.427246 
	C934.398254,692.456299 931.058838,700.516174 931.122986,717.791077 
	C931.428467,800.121887 931.258179,882.454407 931.265869,964.786316 
	C931.266174,967.785034 931.185364,970.798218 931.437744,973.779724 
	C932.232422,983.169983 937.206787,988.949280 946.476562,989.346375 
	C959.782471,989.916443 973.146667,989.838562 986.457642,989.316223 
	C994.604858,988.996399 999.915833,983.540527 1001.237427,975.499878 
	C1001.772705,972.243103 1001.609741,968.856628 1001.611084,965.529114 
	C1001.630920,914.529968 1001.625366,863.530884 1001.625732,812.531738 
	C1001.625793,809.411438 1001.625793,806.291138 1001.625793,803.170837 
	C1002.300598,803.063293 1002.975403,802.955750 1003.650208,802.848206 
	C1039.043457,860.307312 1074.436890,917.766357 1110.529297,976.483032 
M324.999939,989.598389 
	C350.999603,989.598267 377.000305,989.729126 402.998322,989.521973 
	C411.305420,989.455811 419.665833,988.950317 427.897949,987.860840 
	C459.897552,983.625671 480.356445,964.085815 486.127289,932.172974 
	C487.482574,924.678162 488.173462,916.963196 488.205109,909.345520 
	C488.393494,864.013245 488.417297,818.679321 488.190796,773.347473 
	C488.149445,765.069946 487.375519,756.666626 485.779633,748.549561 
	C480.095001,719.636108 461.743042,701.380981 432.647308,696.000549 
	C423.220093,694.257263 413.460175,693.674072 403.850403,693.656250 
	C312.851349,693.487427 221.851883,693.555054 130.852524,693.556152 
	C128.852615,693.556213 126.848549,693.495056 124.853508,693.598694 
	C114.126419,694.156067 108.302063,699.710144 108.005943,710.604980 
	C107.652863,723.595520 107.865112,736.602295 107.904152,749.601868 
	C107.911842,752.160400 108.245712,754.718018 108.486176,758.071228 
	C112.679504,758.071228 116.273911,758.071228 119.868317,758.071289 
	C211.201004,758.072754 302.533691,758.062439 393.866364,758.084656 
	C415.009491,758.089783 418.407288,761.400574 418.439636,782.242676 
	C418.500671,821.575684 418.468079,860.908752 418.443420,900.241821 
	C418.441132,903.905212 418.464600,907.596924 418.046112,911.225952 
	C417.113831,919.310242 413.382141,923.157166 405.302521,924.032166 
	C400.348816,924.568604 395.319000,924.529968 390.323303,924.531433 
	C300.323944,924.557800 210.324585,924.550964 120.325233,924.551208 
	C116.440063,924.551208 112.554886,924.551147 107.980354,924.551147 
	C107.980354,942.179749 107.688400,958.469360 108.103729,974.740906 
	C108.310905,982.857483 113.745171,988.043579 122.024940,989.282776 
	C125.292931,989.771912 128.672516,989.586914 132.001312,989.587646 
	C195.667526,989.601990 259.333740,989.598267 324.999939,989.598389 
M2795.179688,850.148804 
	C2789.464355,850.746094 2783.481689,848.821899 2777.052002,851.719971 
	C2779.313477,854.274109 2780.909180,856.337158 2782.763672,858.132935 
	C2826.344971,900.332581 2869.993896,942.462219 2913.485107,984.754272 
	C2917.131592,988.300354 2920.769775,989.733398 2925.821777,989.694824 
	C2953.820068,989.481018 2981.820557,989.611145 3009.820312,989.550781 
	C3011.960205,989.546143 3014.099121,988.979614 3017.927002,988.433167 
	C3014.639404,984.926270 3012.557373,982.492920 3010.257812,980.285950 
	C2990.058350,960.897949 2969.782959,941.588623 2949.646484,922.135559 
	C2947.480957,920.043640 2943.737549,918.675659 2944.351562,915.044922 
	C2957.002686,911.965759 2969.530518,909.800537 2981.455322,905.826172 
	C3004.723633,898.071106 3018.736816,881.365051 3021.963135,857.148315 
	C3026.333984,824.342102 3024.246338,791.310547 3023.140137,758.360107 
	C3023.062744,756.052856 3022.396484,753.761719 3021.965088,751.470398 
	C3016.406494,721.936157 2997.044189,701.916321 2967.474609,696.083191 
	C2958.720947,694.356506 2949.628662,693.687561 2940.688965,693.668152 
	C2858.690186,693.489685 2776.690430,693.561157 2694.691162,693.560120 
	C2693.357910,693.560120 2692.023438,693.532776 2690.691406,693.573303 
	C2678.526123,693.943298 2672.966797,699.161499 2672.623779,711.335510 
	C2672.304688,722.659912 2672.545654,734.000061 2672.541016,745.333313 
	C2672.539551,749.242920 2672.540771,753.152527 2672.540771,758.067322 
	C2677.237305,758.067322 2680.811523,758.067322 2684.385742,758.067322 
	C2732.718750,758.067322 2781.051514,758.064514 2829.384521,758.068237 
	C2864.051025,758.070984 2898.717773,757.982727 2933.383545,758.136414 
	C2948.403320,758.203003 2952.908203,762.819458 2953.644775,777.839355 
	C2953.709961,779.169861 2953.679688,780.505493 2953.679932,781.838745 
	C2953.682129,796.838623 2953.755127,811.838928 2953.663086,826.838257 
	C2953.543457,846.333191 2949.747803,850.108276 2930.135742,850.130127 
	C2885.802734,850.179565 2841.469727,850.147644 2795.179688,850.148804 
M1893.819458,813.000000 
	C1893.822266,844.321960 1893.676025,875.645203 1893.927979,906.965149 
	C1893.994629,915.246521 1894.523193,923.672546 1896.157104,931.766296 
	C1901.975220,960.589783 1918.932495,979.491638 1947.943848,986.084595 
	C1957.913940,988.350281 1968.362671,989.394775 1978.601074,989.450012 
	C2036.245117,989.761292 2093.891602,989.601318 2151.537354,989.601379 
	C2177.861084,989.601379 2204.185059,989.660706 2230.508545,989.574890 
	C2245.438232,989.526245 2250.944580,984.010803 2251.234375,969.043762 
	C2251.363281,962.382019 2251.267334,955.715698 2251.259521,949.051453 
	C2251.235840,928.641357 2247.123291,924.551453 2226.570068,924.550049 
	C2148.265137,924.544556 2069.960449,924.558472 1991.655518,924.519104 
	C1986.665894,924.516602 1981.624512,924.498657 1976.700195,923.816467 
	C1970.571411,922.967224 1966.163940,919.644653 1965.396362,913.005127 
	C1964.863159,908.393616 1964.323608,903.747253 1964.318115,899.115784 
	C1964.245972,838.471252 1964.271973,777.826599 1964.258911,717.182007 
	C1964.258179,713.852417 1964.416748,710.486511 1964.002319,707.200439 
	C1963.035278,699.531677 1957.951538,694.075745 1950.255371,693.829468 
	C1936.281128,693.382263 1922.265503,693.334473 1908.298340,693.894531 
	C1900.079346,694.224121 1895.094604,699.790771 1894.032593,708.049072 
	C1893.652588,711.004333 1893.828125,714.036926 1893.827026,717.034180 
	C1893.815430,748.356140 1893.819580,779.678040 1893.819458,813.000000 
M2590.885010,924.533081 
	C2494.993896,924.533081 2399.102783,924.658875 2303.212402,924.390137 
	C2289.672363,924.352173 2280.466797,927.263977 2280.489014,947.151245 
	C2280.495850,953.477417 2280.475098,959.803528 2280.487061,966.129700 
	C2280.522705,985.041199 2285.109619,989.608215 2304.162354,989.611084 
	C2370.087402,989.621155 2436.012451,989.615845 2501.937500,989.615112 
	C2535.565918,989.614685 2569.194580,989.678772 2602.822754,989.576538 
	C2616.381836,989.535339 2621.757568,984.256958 2621.980225,971.030701 
	C2622.142578,961.377747 2622.125977,951.718262 2621.983398,942.064636 
	C2621.818115,930.890320 2616.869629,925.542419 2605.814941,924.647339 
	C2601.513428,924.299133 2597.163086,924.553467 2590.885010,924.533081 
M587.002380,989.612793 
	C676.329346,989.612732 765.656372,989.612854 854.983337,989.612244 
	C857.649841,989.612244 860.319702,989.691772 862.982178,989.586182 
	C874.761658,989.119141 879.998840,984.027832 880.281677,972.295288 
	C880.514526,962.634888 880.395325,952.964050 880.322937,943.298645 
	C880.225281,930.250366 875.346191,925.157288 862.467529,924.567505 
	C859.806458,924.445679 857.135376,924.536377 854.468933,924.536377 
	C757.809143,924.535645 661.149292,924.535706 564.489502,924.536072 
	C562.156372,924.536072 559.821167,924.476990 557.490417,924.551880 
	C545.599731,924.934021 540.289978,929.543945 539.572815,941.431396 
	C538.951721,951.726929 538.985840,962.092468 539.325745,972.407471 
	C539.705200,983.923767 545.323914,989.230469 557.007690,989.548889 
	C566.333496,989.803101 575.671631,989.608215 587.002380,989.612793 
M2409.000000,693.563843 
	C2390.008789,693.563843 2371.017578,693.565002 2352.026367,693.563538 
	C2334.367920,693.562195 2316.708252,693.432922 2299.051514,693.599976 
	C2287.723877,693.707092 2282.219971,698.190613 2281.287109,709.477051 
	C2280.357178,720.725281 2280.500488,732.098572 2280.810059,743.399536 
	C2281.000244,750.342712 2285.145996,755.277954 2291.773926,757.411194 
	C2294.528564,758.297852 2297.701416,758.038757 2300.684082,758.039612 
	C2400.304443,758.066650 2499.924805,758.064392 2599.545166,758.049500 
	C2602.206055,758.049072 2604.921875,758.166565 2607.517578,757.702087 
	C2614.345703,756.480469 2619.511230,751.850708 2619.788086,745.074036 
	C2620.303955,732.444580 2620.383545,719.746521 2619.648438,707.135010 
	C2619.171143,698.942688 2613.238770,694.277954 2604.906250,693.666504 
	C2601.922363,693.447510 2598.912109,693.567322 2595.914062,693.567139 
	C2534.276123,693.562988 2472.637939,693.563904 2409.000000,693.563843 
M873.273315,697.556091 
	C868.429138,692.774231 862.258850,693.573914 856.305176,693.573120 
	C757.990967,693.559937 659.676819,693.561218 561.362610,693.564514 
	C559.030701,693.564575 556.680542,693.449585 554.370239,693.689941 
	C546.227966,694.536926 540.417603,699.566101 540.003052,707.653564 
	C539.373047,719.946655 539.291565,732.304932 539.771606,744.604431 
	C540.070801,752.271301 545.821533,757.249084 553.454834,757.962891 
	C556.099487,758.210144 558.783020,758.060547 561.448792,758.060669 
	C659.429688,758.063782 757.410645,758.063416 855.391541,758.062012 
	C857.724365,758.062012 860.062988,758.149902 862.388916,758.018921 
	C872.949585,757.424072 878.170044,752.375427 878.493958,741.692749 
	C878.806824,731.372009 878.923401,721.013794 878.362549,710.713623 
	C878.140930,706.642883 875.856445,702.684448 873.273315,697.556091 
M2616.056641,844.883057 
	C2616.053955,838.889404 2616.142578,832.893982 2616.029541,826.902405 
	C2615.799805,814.702332 2610.623291,809.672974 2598.188477,809.433838 
	C2595.525635,809.382629 2592.860840,809.422546 2590.197021,809.422546 
	C2496.962402,809.422363 2403.727783,809.424011 2310.493164,809.417358 
	C2306.165039,809.417053 2301.828857,809.153931 2297.510742,809.344177 
	C2288.419922,809.744751 2282.744873,813.970459 2281.907471,822.969116 
	C2280.771484,835.177490 2280.481934,847.531433 2280.867676,859.790283 
	C2281.111816,867.547913 2287.628174,872.869019 2295.511475,873.620972 
	C2297.822998,873.841370 2300.169434,873.709534 2302.500000,873.709656 
	C2399.397461,873.712646 2496.294922,873.713196 2593.192383,873.707825 
	C2595.855225,873.707703 2598.543701,873.862366 2601.176514,873.562012 
	C2610.426514,872.506653 2615.421875,867.192627 2615.987793,857.798584 
	C2616.207520,854.148376 2616.044922,850.475098 2616.056641,844.883057 
M539.209900,852.212463 
	C540.090698,857.025635 539.938843,862.370361 542.081726,866.533936 
	C545.776001,873.711914 553.188538,873.772034 560.434021,873.766052 
	C657.657288,873.686096 754.880676,873.717407 852.104004,873.690369 
	C855.419312,873.689453 858.814209,873.763550 862.033691,873.115540 
	C869.485535,871.615662 873.876343,866.961182 874.144653,859.334045 
	C874.565674,847.363464 874.616028,835.357056 874.197144,823.387695 
	C873.905029,815.039429 868.501953,810.161011 860.106140,809.521606 
	C857.125427,809.294678 854.116028,809.425415 851.119690,809.425293 
	C756.559998,809.421814 662.000305,809.422791 567.440613,809.420471 
	C563.778198,809.420410 560.110657,809.263123 556.454285,809.405029 
	C546.533264,809.790344 540.979309,814.505493 540.029907,824.484680 
	C539.212830,833.073181 539.443298,841.761292 539.209900,852.212463 
M1203.051392,1184.129028 
	C1234.313965,1184.129028 1265.576538,1184.129028 1297.229126,1184.129028 
	C1297.229126,1180.147705 1297.229126,1177.062500 1297.229126,1173.217407 
	C1285.030151,1173.217407 1273.404785,1173.217407 1261.779419,1173.217407 
	C1250.447632,1173.217407 1239.114990,1173.309937 1227.784424,1173.191528 
	C1216.300415,1173.071411 1204.762085,1173.753174 1193.430908,1172.721191 
	C1193.430908,1161.120361 1193.430908,1150.960938 1193.430908,1139.686279 
	C1227.220825,1139.686279 1260.369751,1139.686279 1293.450195,1139.686279 
	C1293.450195,1135.995117 1293.450195,1133.435059 1293.450195,1129.729980 
	C1259.882324,1129.729980 1226.734497,1129.729980 1192.899414,1129.729980 
	C1193.004395,1118.793457 1192.138184,1108.997925 1193.468750,1098.369629 
	C1228.887085,1098.369629 1263.059937,1098.369629 1297.495728,1098.369629 
	C1297.632568,1095.786255 1297.811768,1094.146973 1297.776123,1092.512329 
	C1297.748901,1091.258179 1297.450684,1090.009644 1297.237793,1088.510010 
	C1258.431396,1088.510010 1220.002075,1088.510010 1181.447021,1088.510010 
	C1181.447021,1120.648560 1181.447021,1152.111938 1181.447021,1184.129028 
	C1188.446289,1184.129028 1194.759399,1184.129028 1203.051392,1184.129028 
M1055.142578,1176.237061 
	C1058.816406,1172.591187 1065.083740,1169.311035 1065.659424,1165.228271 
	C1067.159546,1154.590576 1066.164185,1143.600952 1066.164185,1132.641357 
	C1043.038574,1132.641357 1021.187866,1132.641357 998.538330,1132.641357 
	C998.695801,1135.956055 998.825378,1138.684204 998.992004,1142.192871 
	C1017.683289,1142.192871 1035.545898,1142.192871 1053.316406,1142.192871 
	C1055.394897,1165.768066 1057.276001,1166.767090 1032.704712,1172.432983 
	C1014.395630,1176.655151 995.642578,1176.706543 977.057617,1173.624268 
	C967.475342,1172.035156 958.342651,1168.864746 950.459839,1162.847900 
	C932.216187,1148.922729 932.149231,1122.202637 950.830444,1108.860840 
	C956.381958,1104.896118 963.095825,1102.084839 969.689453,1100.152344 
	C983.234497,1096.182495 997.231873,1095.645386 1011.298950,1096.868774 
	C1028.339233,1098.350586 1044.763306,1102.109131 1060.600464,1110.450806 
	C1062.208984,1107.096313 1063.578125,1104.240967 1065.385620,1100.471558 
	C1059.979614,1098.047974 1055.302368,1095.601685 1050.387207,1093.807251 
	C1027.018799,1085.276001 1002.893494,1084.173218 978.459839,1087.139404 
	C966.432922,1088.599487 955.016602,1092.153198 944.790955,1098.863403 
	C919.012207,1115.779785 916.820984,1150.138062 940.966675,1169.277710 
	C948.073853,1174.911499 956.950562,1178.969727 965.650330,1181.803101 
	C984.691101,1188.004150 1004.534668,1187.348877 1024.078369,1184.813110 
	C1034.160889,1183.504883 1043.916138,1179.674683 1055.142578,1176.237061 
M1812.999634,1098.731201 
	C1829.566528,1098.731201 1846.133301,1098.731201 1862.963501,1098.731201 
	C1862.963501,1094.627075 1862.963501,1091.764526 1862.963501,1088.433350 
	C1824.057251,1088.433350 1785.612183,1088.433350 1746.883057,1088.433350 
	C1746.883057,1120.486450 1746.883057,1151.942749 1746.883057,1183.461548 
	C1785.979614,1183.461548 1824.459473,1183.461548 1863.475220,1183.461548 
	C1863.273071,1179.897217 1863.110352,1177.030029 1862.894043,1173.217407 
	C1850.740967,1173.217407 1839.140137,1173.217407 1827.539185,1173.217407 
	C1816.207520,1173.217407 1804.875366,1173.279053 1793.544312,1173.200195 
	C1782.035767,1173.120239 1770.497681,1173.567383 1758.705322,1172.903442 
	C1758.705322,1161.456177 1758.705322,1151.270264 1758.705322,1140.032471 
	C1792.292358,1140.032471 1825.435791,1140.032471 1858.980103,1140.032471 
	C1858.980103,1136.212891 1858.980103,1133.451660 1858.980103,1129.579346 
	C1825.283325,1129.579346 1792.152466,1129.579346 1758.769653,1129.579346 
	C1758.769653,1118.938965 1758.769653,1109.417969 1758.769653,1098.730469 
	C1776.518066,1098.730469 1793.758789,1098.730469 1812.999634,1098.731201 
M2554.620117,1184.129028 
	C2558.152832,1184.129028 2561.685547,1184.129028 2565.760498,1184.129028 
	C2565.437012,1179.808350 2565.221924,1176.938477 2564.943115,1173.217407 
	C2552.795166,1173.217407 2541.191895,1173.217407 2529.588623,1173.217407 
	C2518.265137,1173.217407 2506.940186,1173.328247 2495.618652,1173.186401 
	C2484.121338,1173.042358 2472.572754,1173.846802 2461.135010,1172.686279 
	C2461.135010,1161.213013 2461.135010,1150.794312 2461.135010,1139.820190 
	C2494.230225,1139.820190 2526.519775,1139.824219 2558.809326,1139.789307 
	C2559.403320,1139.788696 2560.013184,1139.355347 2560.583496,1139.061401 
	C2560.863525,1138.917358 2561.069580,1138.630249 2561.165039,1138.541504 
	C2561.165039,1135.863525 2561.165039,1133.322144 2561.165039,1129.729736 
	C2527.552246,1129.729736 2494.431396,1129.729736 2460.817139,1129.729736 
	C2460.082764,1118.920532 2460.202637,1109.204224 2460.608154,1098.731445 
	C2478.881348,1098.731445 2495.822754,1098.731567 2512.764160,1098.731567 
	C2530.026611,1098.731567 2547.289062,1098.731445 2564.895020,1098.731445 
	C2564.895020,1094.696899 2564.895020,1091.618896 2564.895020,1088.632080 
	C2548.789551,1086.839111 2456.059814,1087.486938 2449.103027,1089.336792 
	C2449.103027,1120.800537 2449.103027,1152.232300 2449.103027,1184.129028 
	C2484.134766,1184.129028 2518.423096,1184.129028 2554.620117,1184.129028 
M2234.696289,1170.665527 
	C2234.847412,1165.166138 2234.998535,1159.666748 2235.168457,1153.487061 
	C2250.890869,1153.487061 2265.510498,1153.309814 2280.118408,1153.647583 
	C2282.801025,1153.709595 2285.754883,1155.431152 2288.036133,1157.124390 
	C2297.398926,1164.073730 2306.968506,1170.839478 2315.647949,1178.584595 
	C2322.685059,1184.864136 2330.043457,1184.634521 2339.780762,1183.432983 
	C2326.299561,1172.828613 2314.186523,1163.300537 2301.557373,1153.366333 
	C2309.927002,1151.054443 2317.099609,1149.665161 2323.812256,1147.081543 
	C2334.140137,1143.106079 2339.291260,1134.950928 2339.976807,1123.941650 
	C2341.006348,1107.405396 2334.375488,1096.935791 2318.361084,1092.524292 
	C2309.138184,1089.983521 2299.391113,1088.530518 2289.825928,1088.213623 
	C2269.182373,1087.530029 2248.504395,1087.878784 2227.840332,1087.864380 
	C2226.302734,1087.863281 2224.764648,1088.335327 2223.324463,1088.571533 
	C2223.324463,1120.719116 2223.324463,1152.152466 2223.324463,1183.750488 
	C2227.327637,1183.750488 2230.585205,1183.750488 2234.695068,1183.750488 
	C2234.695068,1179.779297 2234.695068,1176.168457 2234.696289,1170.665527 
M1418.943359,1154.984375 
	C1418.943359,1146.988770 1418.736938,1138.986328 1419.002808,1130.999512 
	C1419.258545,1123.318848 1417.740356,1115.455811 1420.454834,1106.719849 
	C1459.940430,1133.751953 1498.483276,1160.138550 1537.563721,1186.893066 
	C1539.390137,1166.996338 1538.690674,1095.221191 1536.624512,1087.782959 
	C1533.511841,1087.982910 1530.312134,1088.188354 1525.988525,1088.466064 
	C1525.988525,1114.090088 1525.988525,1139.131836 1525.988525,1165.967163 
	C1516.724976,1159.687500 1509.082764,1154.539551 1501.475220,1149.340942 
	C1493.501953,1143.892700 1485.562988,1138.394043 1477.606812,1132.920898 
	C1469.925537,1127.636963 1462.238159,1122.362061 1454.559082,1117.074951 
	C1446.605347,1111.598633 1438.685791,1106.072266 1430.701050,1100.641846 
	C1423.197632,1095.538818 1415.628540,1090.532593 1407.392334,1085.017700 
	C1407.392334,1118.915527 1407.392334,1151.136963 1407.392334,1183.479004 
	C1411.363037,1183.479004 1414.833008,1183.479004 1418.942749,1183.479004 
	C1418.942749,1174.235962 1418.942749,1165.605103 1418.943359,1154.984375 
M697.531799,1110.704834 
	C734.443848,1136.045166 771.355896,1161.385498 809.062378,1187.271118 
	C809.062378,1153.210083 809.062378,1120.796143 809.062378,1088.274414 
	C805.161133,1088.274414 801.941162,1088.274414 797.667908,1088.274414 
	C797.667908,1113.777466 797.667908,1138.867188 797.667908,1166.380249 
	C786.105347,1158.481445 776.367126,1151.843994 766.645020,1145.182983 
	C757.033997,1138.598022 747.440491,1131.987427 737.837219,1125.391113 
	C727.960022,1118.606567 718.107605,1111.785400 708.193848,1105.054565 
	C698.544128,1098.502930 689.212769,1091.422607 678.563965,1085.158569 
	C678.563965,1118.951782 678.563965,1151.139404 678.563965,1183.466553 
	C682.559326,1183.466553 685.998718,1183.466553 690.064819,1183.466553 
	C690.064819,1174.542847 690.064758,1166.264282 690.064758,1157.985718 
	C690.064758,1149.326904 689.864746,1140.662231 690.123108,1132.011108 
	C690.364258,1123.937744 688.994690,1115.731934 691.202759,1107.129761 
	C693.344360,1108.305786 694.765747,1109.086426 697.531799,1110.704834 
M1971.562988,1095.797607 
	C1971.565063,1110.797485 1971.482910,1125.798096 1971.621948,1140.796753 
	C1971.661865,1145.103027 1971.826172,1149.526123 1972.817871,1153.684692 
	C1976.566162,1169.404297 1988.056274,1177.443359 2002.514282,1181.734985 
	C2021.691162,1187.427246 2041.391479,1187.674683 2060.942627,1184.581543 
	C2069.992920,1183.149780 2079.109375,1180.239258 2087.392822,1176.307617 
	C2099.400635,1170.608643 2106.080322,1160.138794 2106.392334,1146.738281 
	C2106.834229,1127.767578 2106.472168,1108.777832 2106.390869,1089.796509 
	C2106.388916,1089.311768 2105.656250,1088.830078 2105.255371,1088.343628 
	C2102.046631,1088.343628 2098.837891,1088.343628 2094.690674,1088.343628 
	C2094.690674,1092.124023 2094.695801,1095.394775 2094.689697,1098.665649 
	C2094.663086,1112.998413 2094.696289,1127.331665 2094.587402,1141.663818 
	C2094.477539,1156.095215 2087.267578,1165.826660 2073.782227,1170.147339 
	C2050.970703,1177.456177 2027.790161,1177.504761 2004.971313,1170.400757 
	C1990.293091,1165.831055 1984.026855,1156.531982 1983.763794,1141.288330 
	C1983.510620,1126.625977 1983.708496,1111.956177 1983.650757,1097.289917 
	C1983.639282,1094.369385 1983.369019,1091.449829 1983.213501,1088.443115 
	C1979.041382,1088.443115 1975.557739,1088.443115 1971.891113,1088.443115 
	C1971.759399,1090.692627 1971.662720,1092.342651 1971.562988,1095.797607 
M566.385071,1160.952881 
	C566.385071,1168.489502 566.385071,1176.026245 566.385071,1183.489624 
	C571.105103,1183.489624 574.568054,1183.489624 577.924377,1183.489624 
	C577.924377,1151.376831 577.924377,1119.931641 577.924377,1087.768066 
	C573.887573,1087.969482 570.445679,1088.141235 566.385254,1088.343872 
	C566.385254,1112.511719 566.385254,1135.740479 566.385071,1160.952881 
M1649.419189,1176.390381 
	C1649.419189,1147.198730 1649.419189,1118.007080 1649.419189,1088.324951 
	C1644.966675,1088.324951 1641.489502,1088.324951 1637.695923,1088.324951 
	C1637.695923,1120.338745 1637.695923,1151.842041 1637.695923,1183.294312 
	C1647.892700,1184.602783 1647.892700,1184.602783 1649.419189,1176.390381 
z"/>
<path fill="#595D3D" opacity="1.000000" stroke="none" 
	d="
M1412.310669,933.999756 
	C1412.310669,861.685974 1412.310547,790.372131 1412.311157,719.058228 
	C1412.311157,716.392273 1412.217773,713.721802 1412.338989,711.061218 
	C1412.864746,699.525146 1418.315430,693.778687 1429.688354,693.633057 
	C1448.013672,693.398315 1466.344116,693.580994 1484.672485,693.566772 
	C1493.097900,693.560242 1498.864014,697.355713 1503.326416,704.629456 
	C1542.336792,768.217773 1581.560669,831.674988 1620.732422,895.164307 
	C1622.649292,898.271240 1624.670044,901.314270 1627.421387,905.600830 
	C1629.491821,902.795166 1631.282959,900.697144 1632.716064,898.377869 
	C1672.282227,834.349182 1711.940186,770.376282 1751.196045,706.157715 
	C1756.506104,697.470886 1762.944824,693.314209 1772.998291,693.483948 
	C1789.988770,693.770813 1807.001465,693.986633 1823.978638,693.430908 
	C1837.608765,692.984680 1843.219360,701.560486 1843.142334,712.297241 
	C1842.993896,732.957153 1843.106812,753.619019 1843.107178,774.280029 
	C1843.108398,836.596375 1843.107666,898.912720 1843.107300,961.229065 
	C1843.107300,963.895020 1843.149902,966.561890 1843.093994,969.226685 
	C1842.776733,984.349365 1837.576172,989.476135 1822.333740,989.581177 
	C1812.670166,989.647827 1803.005371,989.652649 1793.341919,989.579407 
	C1778.242065,989.464905 1772.714844,984.148010 1772.654297,969.124084 
	C1772.527954,937.799866 1772.613647,906.474670 1772.612549,875.149902 
	C1772.611816,853.155884 1772.620850,831.161926 1772.595215,809.167908 
	C1772.593018,807.264771 1772.363159,805.361816 1772.106079,801.418091 
	C1769.453003,805.229309 1767.739746,807.452698 1766.275269,809.829529 
	C1732.908081,863.986328 1699.284424,917.988953 1666.438965,972.460693 
	C1659.028320,984.750610 1650.259644,991.182129 1635.767090,989.709534 
	C1629.170410,989.039307 1622.429565,989.270874 1615.788452,989.667419 
	C1604.523071,990.339966 1597.123901,985.426697 1591.324585,975.872681 
	C1566.440552,934.876831 1541.146606,894.129883 1516.007446,853.288818 
	C1506.580322,837.973633 1497.182007,822.640625 1487.728394,807.341736 
	C1486.730591,805.726990 1485.448853,804.287720 1483.129761,801.220825 
	C1482.855591,805.827271 1482.546265,808.617798 1482.544678,811.408508 
	C1482.515503,862.394592 1482.525513,913.380737 1482.517456,964.366821 
	C1482.516968,967.698242 1482.636841,971.046387 1482.358154,974.357910 
	C1481.623291,983.090393 1476.562866,988.939819 1467.861450,989.317810 
	C1454.558716,989.895752 1441.192749,989.934021 1427.892090,989.340637 
	C1418.034668,988.900940 1412.638062,982.493408 1412.387207,971.985291 
	C1412.093140,959.663147 1412.313477,947.328735 1412.310669,933.999756 
z"/>
<path fill="#595D3D" opacity="1.000000" stroke="none" 
	d="
M1110.179688,975.854248 
	C1074.436890,917.766357 1039.043457,860.307312 1003.650208,802.848206 
	C1002.975403,802.955750 1002.300598,803.063293 1001.625793,803.170837 
	C1001.625793,806.291138 1001.625793,809.411438 1001.625732,812.531738 
	C1001.625366,863.530884 1001.630920,914.529968 1001.611084,965.529114 
	C1001.609741,968.856628 1001.772705,972.243103 1001.237427,975.499878 
	C999.915833,983.540527 994.604858,988.996399 986.457642,989.316223 
	C973.146667,989.838562 959.782471,989.916443 946.476562,989.346375 
	C937.206787,988.949280 932.232422,983.169983 931.437744,973.779724 
	C931.185364,970.798218 931.266174,967.785034 931.265869,964.786316 
	C931.258179,882.454407 931.428467,800.121887 931.122986,717.791077 
	C931.058838,700.516174 934.398254,692.456299 955.772217,693.427246 
	C970.741089,694.107361 985.770386,693.789795 1000.763794,693.481262 
	C1010.725830,693.276245 1017.429260,697.007751 1022.791687,705.774292 
	C1062.250366,770.282166 1102.097412,834.552551 1141.845825,898.883057 
	C1143.206787,901.085815 1144.816650,903.134827 1146.779663,905.921692 
	C1155.421265,891.954590 1163.637939,878.705505 1171.824341,865.437683 
	C1204.885620,811.854675 1238.026245,758.320312 1270.892944,704.618225 
	C1275.611938,696.907715 1281.809692,693.483826 1290.565552,693.536133 
	C1307.564697,693.637695 1324.565063,693.501221 1341.564453,693.579163 
	C1356.704102,693.648560 1361.809570,698.787659 1361.818726,714.113342 
	C1361.860840,784.445435 1361.839722,854.777588 1361.840454,925.109680 
	C1361.840576,940.109436 1361.942505,955.110168 1361.805176,970.108643 
	C1361.680420,983.754944 1355.958618,989.391846 1342.198853,989.566711 
	C1332.200684,989.693848 1322.199219,989.644409 1312.199829,989.578613 
	C1296.834106,989.477600 1291.722412,984.473450 1291.707031,969.218933 
	C1291.655029,917.219910 1291.686035,865.220703 1291.685547,813.221619 
	C1291.685425,809.960876 1291.685547,806.700134 1291.685547,803.439392 
	C1291.125977,803.128235 1290.566406,802.817078 1290.006714,802.505981 
	C1288.127930,805.267578 1286.136719,807.960022 1284.386841,810.801086 
	C1250.843628,865.260376 1217.142334,919.623962 1183.964966,974.305481 
	C1177.326904,985.245850 1169.114990,990.706482 1156.291138,989.691956 
	C1149.334839,989.141602 1142.276978,989.238037 1135.304443,989.674622 
	C1124.186279,990.370789 1115.804810,986.485535 1110.179688,975.854248 
z"/>
<path fill="#5A5E3D" opacity="1.000000" stroke="none" 
	d="
M323.999939,989.598389 
	C259.333740,989.598267 195.667526,989.601990 132.001312,989.587646 
	C128.672516,989.586914 125.292931,989.771912 122.024940,989.282776 
	C113.745171,988.043579 108.310905,982.857483 108.103729,974.740906 
	C107.688400,958.469360 107.980354,942.179749 107.980354,924.551147 
	C112.554886,924.551147 116.440063,924.551208 120.325233,924.551208 
	C210.324585,924.550964 300.323944,924.557800 390.323303,924.531433 
	C395.319000,924.529968 400.348816,924.568604 405.302521,924.032166 
	C413.382141,923.157166 417.113831,919.310242 418.046112,911.225952 
	C418.464600,907.596924 418.441132,903.905212 418.443420,900.241821 
	C418.468079,860.908752 418.500671,821.575684 418.439636,782.242676 
	C418.407288,761.400574 415.009491,758.089783 393.866364,758.084656 
	C302.533691,758.062439 211.201004,758.072754 119.868317,758.071289 
	C116.273911,758.071228 112.679504,758.071228 108.486176,758.071228 
	C108.245712,754.718018 107.911842,752.160400 107.904152,749.601868 
	C107.865112,736.602295 107.652863,723.595520 108.005943,710.604980 
	C108.302063,699.710144 114.126419,694.156067 124.853508,693.598694 
	C126.848549,693.495056 128.852615,693.556213 130.852524,693.556152 
	C221.851883,693.555054 312.851349,693.487427 403.850403,693.656250 
	C413.460175,693.674072 423.220093,694.257263 432.647308,696.000549 
	C461.743042,701.380981 480.095001,719.636108 485.779633,748.549561 
	C487.375519,756.666626 488.149445,765.069946 488.190796,773.347473 
	C488.417297,818.679321 488.393494,864.013245 488.205109,909.345520 
	C488.173462,916.963196 487.482574,924.678162 486.127289,932.172974 
	C480.356445,964.085815 459.897552,983.625671 427.897949,987.860840 
	C419.665833,988.950317 411.305420,989.455811 402.998322,989.521973 
	C377.000305,989.729126 350.999603,989.598267 323.999939,989.598389 
z"/>
<path fill="#595D3C" opacity="1.000000" stroke="none" 
	d="
M2796.158203,850.148804 
	C2841.469727,850.147644 2885.802734,850.179565 2930.135742,850.130127 
	C2949.747803,850.108276 2953.543457,846.333191 2953.663086,826.838257 
	C2953.755127,811.838928 2953.682129,796.838623 2953.679932,781.838745 
	C2953.679688,780.505493 2953.709961,779.169861 2953.644775,777.839355 
	C2952.908203,762.819458 2948.403320,758.203003 2933.383545,758.136414 
	C2898.717773,757.982727 2864.051025,758.070984 2829.384521,758.068237 
	C2781.051514,758.064514 2732.718750,758.067322 2684.385742,758.067322 
	C2680.811523,758.067322 2677.237305,758.067322 2672.540771,758.067322 
	C2672.540771,753.152527 2672.539551,749.242920 2672.541016,745.333313 
	C2672.545654,734.000061 2672.304688,722.659912 2672.623779,711.335510 
	C2672.966797,699.161499 2678.526123,693.943298 2690.691406,693.573303 
	C2692.023438,693.532776 2693.357910,693.560120 2694.691162,693.560120 
	C2776.690430,693.561157 2858.690186,693.489685 2940.688965,693.668152 
	C2949.628662,693.687561 2958.720947,694.356506 2967.474609,696.083191 
	C2997.044189,701.916321 3016.406494,721.936157 3021.965088,751.470398 
	C3022.396484,753.761719 3023.062744,756.052856 3023.140137,758.360107 
	C3024.246338,791.310547 3026.333984,824.342102 3021.963135,857.148315 
	C3018.736816,881.365051 3004.723633,898.071106 2981.455322,905.826172 
	C2969.530518,909.800537 2957.002686,911.965759 2944.351562,915.044922 
	C2943.737549,918.675659 2947.480957,920.043640 2949.646484,922.135559 
	C2969.782959,941.588623 2990.058350,960.897949 3010.257812,980.285950 
	C3012.557373,982.492920 3014.639404,984.926270 3017.927002,988.433167 
	C3014.099121,988.979614 3011.960205,989.546143 3009.820312,989.550781 
	C2981.820557,989.611145 2953.820068,989.481018 2925.821777,989.694824 
	C2920.769775,989.733398 2917.131592,988.300354 2913.485107,984.754272 
	C2869.993896,942.462219 2826.344971,900.332581 2782.763672,858.132935 
	C2780.909180,856.337158 2779.313477,854.274109 2777.052002,851.719971 
	C2783.481689,848.821899 2789.464355,850.746094 2796.158203,850.148804 
z"/>
<path fill="#5A5E3D" opacity="1.000000" stroke="none" 
	d="
M1893.819336,812.000000 
	C1893.819580,779.678040 1893.815430,748.356140 1893.827026,717.034180 
	C1893.828125,714.036926 1893.652588,711.004333 1894.032593,708.049072 
	C1895.094604,699.790771 1900.079346,694.224121 1908.298340,693.894531 
	C1922.265503,693.334473 1936.281128,693.382263 1950.255371,693.829468 
	C1957.951538,694.075745 1963.035278,699.531677 1964.002319,707.200439 
	C1964.416748,710.486511 1964.258179,713.852417 1964.258911,717.182007 
	C1964.271973,777.826599 1964.245972,838.471252 1964.318115,899.115784 
	C1964.323608,903.747253 1964.863159,908.393616 1965.396362,913.005127 
	C1966.163940,919.644653 1970.571411,922.967224 1976.700195,923.816467 
	C1981.624512,924.498657 1986.665894,924.516602 1991.655518,924.519104 
	C2069.960449,924.558472 2148.265137,924.544556 2226.570068,924.550049 
	C2247.123291,924.551453 2251.235840,928.641357 2251.259521,949.051453 
	C2251.267334,955.715698 2251.363281,962.382019 2251.234375,969.043762 
	C2250.944580,984.010803 2245.438232,989.526245 2230.508545,989.574890 
	C2204.185059,989.660706 2177.861084,989.601379 2151.537354,989.601379 
	C2093.891602,989.601318 2036.245117,989.761292 1978.601074,989.450012 
	C1968.362671,989.394775 1957.913940,988.350281 1947.943848,986.084595 
	C1918.932495,979.491638 1901.975220,960.589783 1896.157104,931.766296 
	C1894.523193,923.672546 1893.994629,915.246521 1893.927979,906.965149 
	C1893.676025,875.645203 1893.822266,844.321960 1893.819336,812.000000 
z"/>
<path fill="#5C5F3F" opacity="1.000000" stroke="none" 
	d="
M2591.859863,924.533203 
	C2597.163086,924.553467 2601.513428,924.299133 2605.814941,924.647339 
	C2616.869629,925.542419 2621.818115,930.890320 2621.983398,942.064636 
	C2622.125977,951.718262 2622.142578,961.377747 2621.980225,971.030701 
	C2621.757568,984.256958 2616.381836,989.535339 2602.822754,989.576538 
	C2569.194580,989.678772 2535.565918,989.614685 2501.937500,989.615112 
	C2436.012451,989.615845 2370.087402,989.621155 2304.162354,989.611084 
	C2285.109619,989.608215 2280.522705,985.041199 2280.487061,966.129700 
	C2280.475098,959.803528 2280.495850,953.477417 2280.489014,947.151245 
	C2280.466797,927.263977 2289.672363,924.352173 2303.212402,924.390137 
	C2399.102783,924.658875 2494.993896,924.533081 2591.859863,924.533203 
z"/>
<path fill="#5C5F3F" opacity="1.000000" stroke="none" 
	d="
M586.003296,989.612732 
	C575.671631,989.608215 566.333496,989.803101 557.007690,989.548889 
	C545.323914,989.230469 539.705200,983.923767 539.325745,972.407471 
	C538.985840,962.092468 538.951721,951.726929 539.572815,941.431396 
	C540.289978,929.543945 545.599731,924.934021 557.490417,924.551880 
	C559.821167,924.476990 562.156372,924.536072 564.489502,924.536072 
	C661.149292,924.535706 757.809143,924.535645 854.468933,924.536377 
	C857.135376,924.536377 859.806458,924.445679 862.467529,924.567505 
	C875.346191,925.157288 880.225281,930.250366 880.322937,943.298645 
	C880.395325,952.964050 880.514526,962.634888 880.281677,972.295288 
	C879.998840,984.027832 874.761658,989.119141 862.982178,989.586182 
	C860.319702,989.691772 857.649841,989.612244 854.983337,989.612244 
	C765.656372,989.612854 676.329346,989.612732 586.003296,989.612732 
z"/>
<path fill="#595C3C" opacity="1.000000" stroke="none" 
	d="
M2410.000000,693.563782 
	C2472.637939,693.563904 2534.276123,693.562988 2595.914062,693.567139 
	C2598.912109,693.567322 2601.922363,693.447510 2604.906250,693.666504 
	C2613.238770,694.277954 2619.171143,698.942688 2619.648438,707.135010 
	C2620.383545,719.746521 2620.303955,732.444580 2619.788086,745.074036 
	C2619.511230,751.850708 2614.345703,756.480469 2607.517578,757.702087 
	C2604.921875,758.166565 2602.206055,758.049072 2599.545166,758.049500 
	C2499.924805,758.064392 2400.304443,758.066650 2300.684082,758.039612 
	C2297.701416,758.038757 2294.528564,758.297852 2291.773926,757.411194 
	C2285.145996,755.277954 2281.000244,750.342712 2280.810059,743.399536 
	C2280.500488,732.098572 2280.357178,720.725281 2281.287109,709.477051 
	C2282.219971,698.190613 2287.723877,693.707092 2299.051514,693.599976 
	C2316.708252,693.432922 2334.367920,693.562195 2352.026367,693.563538 
	C2371.017578,693.565002 2390.008789,693.563843 2410.000000,693.563782 
z"/>
<path fill="#595C3C" opacity="1.000000" stroke="none" 
	d="
M873.892212,698.115479 
	C875.856445,702.684448 878.140930,706.642883 878.362549,710.713623 
	C878.923401,721.013794 878.806824,731.372009 878.493958,741.692749 
	C878.170044,752.375427 872.949585,757.424072 862.388916,758.018921 
	C860.062988,758.149902 857.724365,758.062012 855.391541,758.062012 
	C757.410645,758.063416 659.429688,758.063782 561.448792,758.060669 
	C558.783020,758.060547 556.099487,758.210144 553.454834,757.962891 
	C545.821533,757.249084 540.070801,752.271301 539.771606,744.604431 
	C539.291565,732.304932 539.373047,719.946655 540.003052,707.653564 
	C540.417603,699.566101 546.227966,694.536926 554.370239,693.689941 
	C556.680542,693.449585 559.030701,693.564575 561.362610,693.564514 
	C659.676819,693.561218 757.990967,693.559937 856.305176,693.573120 
	C862.258850,693.573914 868.429138,692.774231 873.892212,698.115479 
z"/>
<path fill="#595E3D" opacity="1.000000" stroke="none" 
	d="
M2616.056641,845.847717 
	C2616.044922,850.475098 2616.207520,854.148376 2615.987793,857.798584 
	C2615.421875,867.192627 2610.426514,872.506653 2601.176514,873.562012 
	C2598.543701,873.862366 2595.855225,873.707703 2593.192383,873.707825 
	C2496.294922,873.713196 2399.397461,873.712646 2302.500000,873.709656 
	C2300.169434,873.709534 2297.822998,873.841370 2295.511475,873.620972 
	C2287.628174,872.869019 2281.111816,867.547913 2280.867676,859.790283 
	C2280.481934,847.531433 2280.771484,835.177490 2281.907471,822.969116 
	C2282.744873,813.970459 2288.419922,809.744751 2297.510742,809.344177 
	C2301.828857,809.153931 2306.165039,809.417053 2310.493164,809.417358 
	C2403.727783,809.424011 2496.962402,809.422363 2590.197021,809.422546 
	C2592.860840,809.422546 2595.525635,809.382629 2598.188477,809.433838 
	C2610.623291,809.672974 2615.799805,814.702332 2616.029541,826.902405 
	C2616.142578,832.893982 2616.053955,838.889404 2616.056641,845.847717 
z"/>
<path fill="#595E3D" opacity="1.000000" stroke="none" 
	d="
M539.210205,851.308960 
	C539.443298,841.761292 539.212830,833.073181 540.029907,824.484680 
	C540.979309,814.505493 546.533264,809.790344 556.454285,809.405029 
	C560.110657,809.263123 563.778198,809.420410 567.440613,809.420471 
	C662.000305,809.422791 756.559998,809.421814 851.119690,809.425293 
	C854.116028,809.425415 857.125427,809.294678 860.106140,809.521606 
	C868.501953,810.161011 873.905029,815.039429 874.197144,823.387695 
	C874.616028,835.357056 874.565674,847.363464 874.144653,859.334045 
	C873.876343,866.961182 869.485535,871.615662 862.033691,873.115540 
	C858.814209,873.763550 855.419312,873.689453 852.104004,873.690369 
	C754.880676,873.717407 657.657288,873.686096 560.434021,873.766052 
	C553.188538,873.772034 545.776001,873.711914 542.081726,866.533936 
	C539.938843,862.370361 540.090698,857.025635 539.210205,851.308960 
z"/>
<path fill="#5E6040" opacity="1.000000" stroke="none" 
	d="
M1202.062012,1184.129028 
	C1194.759399,1184.129028 1188.446289,1184.129028 1181.447021,1184.129028 
	C1181.447021,1152.111938 1181.447021,1120.648560 1181.447021,1088.510010 
	C1220.002075,1088.510010 1258.431396,1088.510010 1297.237793,1088.510010 
	C1297.450684,1090.009644 1297.748901,1091.258179 1297.776123,1092.512329 
	C1297.811768,1094.146973 1297.632568,1095.786255 1297.495728,1098.369629 
	C1263.059937,1098.369629 1228.887085,1098.369629 1193.468750,1098.369629 
	C1192.138184,1108.997925 1193.004395,1118.793457 1192.899414,1129.729980 
	C1226.734497,1129.729980 1259.882324,1129.729980 1293.450195,1129.729980 
	C1293.450195,1133.435059 1293.450195,1135.995117 1293.450195,1139.686279 
	C1260.369751,1139.686279 1227.220825,1139.686279 1193.430908,1139.686279 
	C1193.430908,1150.960938 1193.430908,1161.120361 1193.430908,1172.721191 
	C1204.762085,1173.753174 1216.300415,1173.071411 1227.784424,1173.191528 
	C1239.114990,1173.309937 1250.447632,1173.217407 1261.779419,1173.217407 
	C1273.404785,1173.217407 1285.030151,1173.217407 1297.229126,1173.217407 
	C1297.229126,1177.062500 1297.229126,1180.147705 1297.229126,1184.129028 
	C1265.576538,1184.129028 1234.313965,1184.129028 1202.062012,1184.129028 
z"/>
<path fill="#626545" opacity="1.000000" stroke="none" 
	d="
M1054.480957,1176.610474 
	C1043.916138,1179.674683 1034.160889,1183.504883 1024.078369,1184.813110 
	C1004.534668,1187.348877 984.691101,1188.004150 965.650330,1181.803101 
	C956.950562,1178.969727 948.073853,1174.911499 940.966675,1169.277710 
	C916.820984,1150.138062 919.012207,1115.779785 944.790955,1098.863403 
	C955.016602,1092.153198 966.432922,1088.599487 978.459839,1087.139404 
	C1002.893494,1084.173218 1027.018799,1085.276001 1050.387207,1093.807251 
	C1055.302368,1095.601685 1059.979614,1098.047974 1065.385620,1100.471558 
	C1063.578125,1104.240967 1062.208984,1107.096313 1060.600464,1110.450806 
	C1044.763306,1102.109131 1028.339233,1098.350586 1011.298950,1096.868774 
	C997.231873,1095.645386 983.234497,1096.182495 969.689453,1100.152344 
	C963.095825,1102.084839 956.381958,1104.896118 950.830444,1108.860840 
	C932.149231,1122.202637 932.216187,1148.922729 950.459839,1162.847900 
	C958.342651,1168.864746 967.475342,1172.035156 977.057617,1173.624268 
	C995.642578,1176.706543 1014.395630,1176.655151 1032.704712,1172.432983 
	C1057.276001,1166.767090 1055.394897,1165.768066 1053.316406,1142.192871 
	C1035.545898,1142.192871 1017.683289,1142.192871 998.992004,1142.192871 
	C998.825378,1138.684204 998.695801,1135.956055 998.538330,1132.641357 
	C1021.187866,1132.641357 1043.038574,1132.641357 1066.164185,1132.641357 
	C1066.164185,1143.600952 1067.159546,1154.590576 1065.659424,1165.228271 
	C1065.083740,1169.311035 1058.816406,1172.591187 1054.480957,1176.610474 
z"/>
<path fill="#5E6040" opacity="1.000000" stroke="none" 
	d="
M1811.999512,1098.730835 
	C1793.758789,1098.730469 1776.518066,1098.730469 1758.769653,1098.730469 
	C1758.769653,1109.417969 1758.769653,1118.938965 1758.769653,1129.579346 
	C1792.152466,1129.579346 1825.283325,1129.579346 1858.980103,1129.579346 
	C1858.980103,1133.451660 1858.980103,1136.212891 1858.980103,1140.032471 
	C1825.435791,1140.032471 1792.292358,1140.032471 1758.705322,1140.032471 
	C1758.705322,1151.270264 1758.705322,1161.456177 1758.705322,1172.903442 
	C1770.497681,1173.567383 1782.035767,1173.120239 1793.544312,1173.200195 
	C1804.875366,1173.279053 1816.207520,1173.217407 1827.539185,1173.217407 
	C1839.140137,1173.217407 1850.740967,1173.217407 1862.894043,1173.217407 
	C1863.110352,1177.030029 1863.273071,1179.897217 1863.475220,1183.461548 
	C1824.459473,1183.461548 1785.979614,1183.461548 1746.883057,1183.461548 
	C1746.883057,1151.942749 1746.883057,1120.486450 1746.883057,1088.433350 
	C1785.612183,1088.433350 1824.057251,1088.433350 1862.963501,1088.433350 
	C1862.963501,1091.764526 1862.963501,1094.627075 1862.963501,1098.731201 
	C1846.133301,1098.731201 1829.566528,1098.731201 1811.999512,1098.730835 
z"/>
<path fill="#5E6040" opacity="1.000000" stroke="none" 
	d="
M2553.665527,1184.129028 
	C2518.423096,1184.129028 2484.134766,1184.129028 2449.103027,1184.129028 
	C2449.103027,1152.232300 2449.103027,1120.800537 2449.103027,1089.336792 
	C2456.059814,1087.486938 2548.789551,1086.839111 2564.895020,1088.632080 
	C2564.895020,1091.618896 2564.895020,1094.696899 2564.895020,1098.731445 
	C2547.289062,1098.731445 2530.026611,1098.731567 2512.764160,1098.731567 
	C2495.822754,1098.731567 2478.881348,1098.731445 2460.608154,1098.731445 
	C2460.202637,1109.204224 2460.082764,1118.920532 2460.817139,1129.729736 
	C2494.431396,1129.729736 2527.552246,1129.729736 2561.165039,1129.729736 
	C2561.165039,1133.322144 2561.165039,1135.863525 2561.165039,1138.541504 
	C2561.069580,1138.630249 2560.863525,1138.917358 2560.583496,1139.061401 
	C2560.013184,1139.355347 2559.403320,1139.788696 2558.809326,1139.789307 
	C2526.519775,1139.824219 2494.230225,1139.820190 2461.135010,1139.820190 
	C2461.135010,1150.794312 2461.135010,1161.213013 2461.135010,1172.686279 
	C2472.572754,1173.846802 2484.121338,1173.042358 2495.618652,1173.186401 
	C2506.940186,1173.328247 2518.265137,1173.217407 2529.588623,1173.217407 
	C2541.191895,1173.217407 2552.795166,1173.217407 2564.943115,1173.217407 
	C2565.221924,1176.938477 2565.437012,1179.808350 2565.760498,1184.129028 
	C2561.685547,1184.129028 2558.152832,1184.129028 2553.665527,1184.129028 
z"/>
<path fill="#626545" opacity="1.000000" stroke="none" 
	d="
M2234.695801,1171.611572 
	C2234.695068,1176.168457 2234.695068,1179.779297 2234.695068,1183.750488 
	C2230.585205,1183.750488 2227.327637,1183.750488 2223.324463,1183.750488 
	C2223.324463,1152.152466 2223.324463,1120.719116 2223.324463,1088.571533 
	C2224.764648,1088.335327 2226.302734,1087.863281 2227.840332,1087.864380 
	C2248.504395,1087.878784 2269.182373,1087.530029 2289.825928,1088.213623 
	C2299.391113,1088.530518 2309.138184,1089.983521 2318.361084,1092.524292 
	C2334.375488,1096.935791 2341.006348,1107.405396 2339.976807,1123.941650 
	C2339.291260,1134.950928 2334.140137,1143.106079 2323.812256,1147.081543 
	C2317.099609,1149.665161 2309.927002,1151.054443 2301.557373,1153.366333 
	C2314.186523,1163.300537 2326.299561,1172.828613 2339.780762,1183.432983 
	C2330.043457,1184.634521 2322.685059,1184.864136 2315.647949,1178.584595 
	C2306.968506,1170.839478 2297.398926,1164.073730 2288.036133,1157.124390 
	C2285.754883,1155.431152 2282.801025,1153.709595 2280.118408,1153.647583 
	C2265.510498,1153.309814 2250.890869,1153.487061 2235.168457,1153.487061 
	C2234.998535,1159.666748 2234.847412,1165.166138 2234.695801,1171.611572 
M2251.100342,1142.864380 
	C2264.738525,1142.729980 2278.385498,1142.837402 2292.011719,1142.360474 
	C2298.948730,1142.117676 2305.973145,1141.381714 2312.737549,1139.877075 
	C2323.214844,1137.546509 2327.715820,1131.718750 2327.995361,1121.828979 
	C2328.296631,1111.170776 2324.154053,1105.258301 2313.669678,1101.860474 
	C2310.533691,1100.844116 2307.221191,1099.898804 2303.963867,1099.804077 
	C2281.715576,1099.156738 2259.460938,1098.738403 2237.207031,1098.295288 
	C2236.649414,1098.284180 2236.080566,1098.834595 2235.031006,1099.371826 
	C2235.031006,1113.267090 2235.031006,1127.408569 2235.031006,1142.864990 
	C2240.050781,1142.864990 2244.594727,1142.864990 2251.100342,1142.864380 
z"/>
<path fill="#5E6040" opacity="1.000000" stroke="none" 
	d="
M1418.943115,1155.979248 
	C1418.942749,1165.605103 1418.942749,1174.235962 1418.942749,1183.479004 
	C1414.833008,1183.479004 1411.363037,1183.479004 1407.392334,1183.479004 
	C1407.392334,1151.136963 1407.392334,1118.915527 1407.392334,1085.017700 
	C1415.628540,1090.532593 1423.197632,1095.538818 1430.701050,1100.641846 
	C1438.685791,1106.072266 1446.605347,1111.598633 1454.559082,1117.074951 
	C1462.238159,1122.362061 1469.925537,1127.636963 1477.606812,1132.920898 
	C1485.562988,1138.394043 1493.501953,1143.892700 1501.475220,1149.340942 
	C1509.082764,1154.539551 1516.724976,1159.687500 1525.988525,1165.967163 
	C1525.988525,1139.131836 1525.988525,1114.090088 1525.988525,1088.466064 
	C1530.312134,1088.188354 1533.511841,1087.982910 1536.624512,1087.782959 
	C1538.690674,1095.221191 1539.390137,1166.996338 1537.563721,1186.893066 
	C1498.483276,1160.138550 1459.940430,1133.751953 1420.454834,1106.719849 
	C1417.740356,1115.455811 1419.258545,1123.318848 1419.002808,1130.999512 
	C1418.736938,1138.986328 1418.943359,1146.988770 1418.943115,1155.979248 
z"/>
<path fill="#626545" opacity="1.000000" stroke="none" 
	d="
M696.859497,1110.285889 
	C694.765747,1109.086426 693.344360,1108.305786 691.202759,1107.129761 
	C688.994690,1115.731934 690.364258,1123.937744 690.123108,1132.011108 
	C689.864746,1140.662231 690.064758,1149.326904 690.064758,1157.985718 
	C690.064758,1166.264282 690.064819,1174.542847 690.064819,1183.466553 
	C685.998718,1183.466553 682.559326,1183.466553 678.563965,1183.466553 
	C678.563965,1151.139404 678.563965,1118.951782 678.563965,1085.158569 
	C689.212769,1091.422607 698.544128,1098.502930 708.193848,1105.054565 
	C718.107605,1111.785400 727.960022,1118.606567 737.837219,1125.391113 
	C747.440491,1131.987427 757.033997,1138.598022 766.645020,1145.182983 
	C776.367126,1151.843994 786.105347,1158.481445 797.667908,1166.380249 
	C797.667908,1138.867188 797.667908,1113.777466 797.667908,1088.274414 
	C801.941162,1088.274414 805.161133,1088.274414 809.062378,1088.274414 
	C809.062378,1120.796143 809.062378,1153.210083 809.062378,1187.271118 
	C771.355896,1161.385498 734.443848,1136.045166 696.859497,1110.285889 
z"/>
<path fill="#626545" opacity="1.000000" stroke="none" 
	d="
M1971.564453,1094.895142 
	C1971.662720,1092.342651 1971.759399,1090.692627 1971.891113,1088.443115 
	C1975.557739,1088.443115 1979.041382,1088.443115 1983.213501,1088.443115 
	C1983.369019,1091.449829 1983.639282,1094.369385 1983.650757,1097.289917 
	C1983.708496,1111.956177 1983.510620,1126.625977 1983.763794,1141.288330 
	C1984.026855,1156.531982 1990.293091,1165.831055 2004.971313,1170.400757 
	C2027.790161,1177.504761 2050.970703,1177.456177 2073.782227,1170.147339 
	C2087.267578,1165.826660 2094.477539,1156.095215 2094.587402,1141.663818 
	C2094.696289,1127.331665 2094.663086,1112.998413 2094.689697,1098.665649 
	C2094.695801,1095.394775 2094.690674,1092.124023 2094.690674,1088.343628 
	C2098.837891,1088.343628 2102.046631,1088.343628 2105.259766,1088.345337 
	C2105.656250,1088.830078 2106.388916,1089.311768 2106.390869,1089.796509 
	C2106.472168,1108.777832 2106.834229,1127.767578 2106.392334,1146.738281 
	C2106.080322,1160.138794 2099.400635,1170.608643 2087.392822,1176.307617 
	C2079.109375,1180.239258 2069.992920,1183.149780 2060.942627,1184.581543 
	C2041.391479,1187.674683 2021.691162,1187.427246 2002.514282,1181.734985 
	C1988.056274,1177.443359 1976.566162,1169.404297 1972.817871,1153.684692 
	C1971.826172,1149.526123 1971.661865,1145.103027 1971.621948,1140.796753 
	C1971.482910,1125.798096 1971.565063,1110.797485 1971.564453,1094.895142 
z"/>
<path fill="#626545" opacity="1.000000" stroke="none" 
	d="
M566.385132,1159.961182 
	C566.385254,1135.740479 566.385254,1112.511719 566.385254,1088.343872 
	C570.445679,1088.141235 573.887573,1087.969482 577.924377,1087.768066 
	C577.924377,1119.931641 577.924377,1151.376831 577.924377,1183.489624 
	C574.568054,1183.489624 571.105103,1183.489624 566.385071,1183.489624 
	C566.385071,1176.026245 566.385071,1168.489502 566.385132,1159.961182 
z"/>
<path fill="#626545" opacity="1.000000" stroke="none" 
	d="
M1649.417236,1177.313232 
	C1647.892700,1184.602783 1647.892700,1184.602783 1637.695923,1183.294312 
	C1637.695923,1151.842041 1637.695923,1120.338745 1637.695923,1088.324951 
	C1641.489502,1088.324951 1644.966675,1088.324951 1649.419189,1088.324951 
	C1649.419189,1118.007080 1649.419189,1147.198730 1649.417236,1177.313232 
z"/>
<path fill="#FAFBFA" opacity="1.000000" stroke="none" 
	d="
M2250.119629,1142.864746 
	C2244.594727,1142.864990 2240.050781,1142.864990 2235.031006,1142.864990 
	C2235.031006,1127.408569 2235.031006,1113.267090 2235.031006,1099.371826 
	C2236.080566,1098.834595 2236.649414,1098.284180 2237.207031,1098.295288 
	C2259.460938,1098.738403 2281.715576,1099.156738 2303.963867,1099.804077 
	C2307.221191,1099.898804 2310.533691,1100.844116 2313.669678,1101.860474 
	C2324.154053,1105.258301 2328.296631,1111.170776 2327.995361,1121.828979 
	C2327.715820,1131.718750 2323.214844,1137.546509 2312.737549,1139.877075 
	C2305.973145,1141.381714 2298.948730,1142.117676 2292.011719,1142.360474 
	C2278.385498,1142.837402 2264.738525,1142.729980 2250.119629,1142.864746 
z"/>
</svg>